<svg width="276" height="24" viewBox="0 0 276 24" fill="none" xmlns="http://www.w3.org/2000/svg">
<path d="M15.936 11.712C18.432 11.584 20.608 10.112 21.44 8C22.208 5.952 21.632 3.776 20.544 2.368C18.88 0.191999 15.872 0.128 10.944 0.0639992C7.48801 0 4.03201 0.256001 0.640015 0.960001V7.808C2.81601 7.36 7.23201 6.528 10.624 6.592C11.84 6.656 13.12 6.848 13.504 7.616C13.632 8 13.632 8.384 13.504 8.768C12.928 9.984 10.752 10.304 8.76801 10.304H6.08002V13.376H8.76801C10.752 13.376 12.928 13.632 13.504 14.912C13.632 15.232 13.632 15.68 13.504 16C13.12 16.832 11.84 16.96 10.624 17.024C7.42401 17.152 3.39201 16.448 1.08801 15.936V22.784C4.35201 23.424 7.68001 23.68 10.944 23.616C15.872 23.552 18.88 23.424 20.544 21.248C21.632 19.84 22.208 17.664 21.44 15.68C20.608 13.568 18.432 12.096 15.936 11.968H15.872V11.712H15.936Z" fill="black"/>
<path d="M52.0815 17.472C51.9535 15.616 51.8255 13.696 51.6975 11.84C51.6335 9.92 51.5695 8.064 51.5055 6.144L51.4415 3.328C51.3775 2.368 51.3775 1.408 51.3775 0.512001H41.5215L38.2575 12.416H38.0655L34.8015 0.512001H24.9455C24.9455 1.408 24.9455 2.368 24.9455 3.328L24.8815 6.144C24.8175 8.064 24.6895 9.92 24.6255 11.84C24.4975 13.696 24.4335 15.616 24.3055 17.472L24.0495 20.352C23.9855 21.248 23.9215 22.208 23.8575 23.168H32.4335C32.4335 22.208 32.4975 21.248 32.4975 20.352L32.5615 17.472C32.6255 15.616 32.6895 13.696 32.7535 11.84C32.8175 10.944 32.8815 10.112 32.9455 9.28H33.1375L36.9135 23.168H39.4095L43.1855 9.28H43.4415C43.4415 10.112 43.5055 10.944 43.5695 11.84C43.6335 13.696 43.7615 15.616 43.7615 17.472L43.8895 20.352C43.8895 21.248 43.8895 22.208 43.8895 23.168H52.5295C52.4015 22.208 52.3375 21.248 52.2735 20.352L52.0815 17.472Z" fill="black"/>
<path d="M63.523 3.328C63.587 2.368 63.587 1.472 63.651 0.512001H55.075C55.075 1.472 55.139 2.368 55.139 3.328L55.203 6.208C55.267 8.064 55.267 9.984 55.267 11.84C55.267 13.76 55.267 15.616 55.203 17.536L55.139 20.352C55.139 21.312 55.075 22.208 55.075 23.168H63.651C63.587 22.208 63.587 21.312 63.523 20.352L63.459 17.536C63.459 15.616 63.459 13.76 63.459 11.84C63.459 9.984 63.459 8.064 63.459 6.208L63.523 3.328Z" fill="black"/>
<path d="M76.2125 14.592C75.5725 13.824 75.1885 12.864 75.1245 11.904C75.0605 10.88 75.2525 9.792 75.8285 8.896C77.2365 6.72 81.0765 6.016 85.0445 7.68V1.024C83.1885 0.32 81.2045 0 79.2205 0C77.3645 0 75.5085 0.32 73.7805 0.960001C73.5245 1.024 73.2685 1.152 73.1405 1.216C66.2925 3.904 66.2925 10.688 66.2925 11.84C66.2925 12.992 66.2925 19.776 73.1405 22.464C76.7245 23.936 80.6925 24.064 84.4045 22.784C84.5325 22.784 84.6605 22.72 84.7245 22.72V15.488C83.6365 15.872 82.5485 16.128 81.3965 16.128C79.8605 16.192 77.6205 16.192 76.2125 14.592Z" fill="black"/>
<path d="M87.6975 0.512001V7.808L90.2575 7.744L92.8815 7.68C93.2015 7.68 93.5855 7.68 93.9695 7.68C93.9695 9.088 93.9695 10.496 93.9695 11.84C93.9695 13.76 93.9695 15.616 93.9055 17.536L93.8415 20.352C93.8415 21.312 93.7775 22.272 93.7775 23.168H102.354C102.354 22.272 102.29 21.312 102.29 20.352L102.226 17.536C102.162 15.616 102.162 13.76 102.162 11.84C102.162 10.432 102.162 9.088 102.162 7.68C102.546 7.68 102.93 7.68 103.25 7.68L105.874 7.744L108.498 7.808V0.512001H87.6975Z" fill="black"/>
<path d="M127.89 1.216C124.306 -0.32 120.21 -0.32 116.562 1.216C110.29 3.904 110.29 10.688 110.29 11.84C110.29 12.992 110.29 19.776 116.562 22.464C120.21 24.064 124.306 24.064 127.89 22.464C134.226 19.776 134.226 12.992 134.226 11.84C134.226 10.688 134.226 3.904 127.89 1.216ZM123.794 17.152C122.898 17.92 121.554 17.92 120.722 17.152C118.994 15.808 118.994 12.416 118.994 11.904C118.994 11.328 118.994 7.936 120.722 6.592C121.554 5.824 122.898 5.824 123.794 6.592C125.522 7.936 125.522 11.328 125.522 11.904C125.522 12.416 125.522 15.808 123.794 17.152Z" fill="black"/>
<path d="M164.218 3.648C162.49 2.496 160.186 2.496 158.458 3.648C157.37 4.352 156.602 5.376 156.154 6.528C156.154 6.4 156.154 6.272 156.154 6.144L156.218 3.328C156.218 2.368 156.282 1.472 156.282 0.512001H147.706C147.77 1.472 147.77 2.368 147.834 3.328L147.898 6.144C147.898 6.272 147.898 6.4 147.898 6.528C147.386 5.44 146.682 4.352 145.594 3.648C143.802 2.496 141.498 2.496 139.77 3.648C136.57 5.696 136.57 10.944 136.57 11.84C136.57 12.672 136.57 17.92 139.77 19.968C141.498 21.184 143.802 21.184 145.594 19.968C146.618 19.264 147.386 18.304 147.898 17.088C147.898 17.216 147.898 17.344 147.898 17.536L147.834 20.352C147.77 21.312 147.77 22.208 147.706 23.168H156.282C156.282 22.208 156.218 21.312 156.218 20.352L156.154 17.536C156.154 17.344 156.154 17.216 156.154 17.088C156.602 18.24 157.37 19.264 158.458 19.968C160.186 21.184 162.49 21.184 164.218 19.968C167.482 17.92 167.482 12.736 167.482 11.84C167.482 10.944 167.482 5.76 164.218 3.648ZM146.874 15.232C146.17 15.744 145.274 15.744 144.634 15.232C143.418 14.4 143.418 12.224 143.418 11.84C143.418 11.456 143.418 9.28 144.634 8.448C145.274 7.936 146.17 7.936 146.874 8.448C147.45 8.832 147.77 9.536 147.898 10.176C147.898 10.752 147.898 11.264 147.898 11.84C147.898 12.416 147.898 12.992 147.898 13.504C147.77 14.208 147.45 14.848 146.874 15.232ZM159.354 15.232C158.714 15.744 157.818 15.744 157.178 15.232C156.602 14.848 156.282 14.144 156.09 13.504C156.09 12.928 156.09 12.416 156.09 11.84C156.09 11.264 156.09 10.688 156.09 10.112C156.282 9.472 156.602 8.768 157.178 8.384C157.818 7.872 158.714 7.872 159.354 8.384C160.634 9.28 160.634 11.456 160.634 11.84C160.634 12.16 160.634 14.336 159.354 15.232Z" fill="black"/>
<path d="M187.388 1.216C183.804 -0.32 179.708 -0.32 176.06 1.216C169.788 3.904 169.788 10.688 169.788 11.84C169.788 12.992 169.788 19.776 176.06 22.464C179.708 24.064 183.804 24.064 187.388 22.464C193.724 19.776 193.724 12.992 193.724 11.84C193.724 10.688 193.724 3.904 187.388 1.216ZM183.292 17.152C182.396 17.92 181.052 17.92 180.22 17.152C178.492 15.808 178.492 12.416 178.492 11.904C178.492 11.328 178.492 7.936 180.22 6.592C181.052 5.824 182.396 5.824 183.292 6.592C185.02 7.936 185.02 11.328 185.02 11.904C185.02 12.416 185.02 15.808 183.292 17.152Z" fill="black"/>
<path d="M208.548 0.512001H196.068C196.068 1.472 196.132 2.368 196.132 3.328L196.196 6.144C196.26 8.064 196.26 9.92 196.26 11.84C196.26 13.696 196.26 15.616 196.196 17.472L196.132 20.352C196.132 21.248 196.068 22.208 196.068 23.168H204.644C204.58 22.208 204.58 21.248 204.516 20.352L204.452 17.472C204.452 17.152 204.452 16.832 204.452 16.512C205.796 16.896 207.14 17.088 208.548 17.088C209.508 17.088 215.268 17.088 217.572 12.672C218.852 10.24 218.852 7.296 217.572 4.864C215.268 0.512001 209.508 0.512001 208.548 0.512001ZM209.252 10.304C209.06 10.624 208.804 10.88 208.548 11.072C208.164 11.328 207.78 11.52 207.396 11.584C206.756 11.776 206.18 11.84 205.54 11.84C205.156 11.84 204.772 11.84 204.452 11.776C204.452 9.92 204.452 8.064 204.452 6.144V6.08H205.54C205.86 6.08 207.46 6.08 208.548 6.848C208.804 7.04 209.06 7.296 209.252 7.616C209.38 7.872 209.508 8.128 209.572 8.448C209.636 8.64 209.636 8.768 209.636 8.96C209.636 9.408 209.508 9.92 209.252 10.304Z" fill="black"/>
<path d="M248.634 17.472C248.506 15.616 248.378 13.696 248.25 11.84C248.186 9.92 248.122 8.064 248.058 6.144L247.994 3.328C247.93 2.368 247.93 1.408 247.93 0.512001H238.074L234.81 12.416H234.618L231.354 0.512001H221.498C221.498 1.408 221.498 2.368 221.498 3.328L221.434 6.144C221.37 8.064 221.242 9.92 221.178 11.84C221.05 13.696 220.986 15.616 220.858 17.472L220.602 20.352C220.538 21.248 220.474 22.208 220.41 23.168H228.986C228.986 22.208 229.05 21.248 229.05 20.352L229.114 17.472C229.178 15.616 229.242 13.696 229.306 11.84C229.37 10.944 229.434 10.112 229.498 9.28H229.69L233.466 23.168H235.962L239.738 9.28H239.994C239.994 10.112 240.058 10.944 240.122 11.84C240.186 13.696 240.314 15.616 240.314 17.472L240.442 20.352C240.442 21.248 240.442 22.208 240.442 23.168H249.082C248.954 22.208 248.89 21.248 248.826 20.352L248.634 17.472Z" fill="black"/>
<path d="M274.475 20.352L273.772 17.536C273.26 15.616 272.811 13.76 272.363 11.84C271.915 9.984 271.467 8.064 271.02 6.208L270.444 3.392C270.252 2.432 269.995 1.472 269.867 0.512001H257.004C256.876 1.472 256.684 2.432 256.492 3.392L255.852 6.208C255.404 8.064 254.956 9.984 254.572 11.84C254.06 13.76 253.612 15.616 253.1 17.536L252.396 20.352C252.14 21.312 251.884 22.272 251.628 23.168H260.203C260.395 22.272 260.588 21.312 260.78 20.352L261.035 19.328H265.9L266.091 20.352C266.283 21.312 266.476 22.272 266.668 23.168H275.307C274.987 22.272 274.732 21.312 274.475 20.352ZM263.34 9.408H263.595C263.787 10.24 263.98 11.072 264.172 11.84C264.492 13.376 264.875 14.848 265.195 16.384H261.676C261.996 14.848 262.379 13.376 262.699 11.84C262.891 11.072 263.083 10.24 263.34 9.408Z" fill="black"/>
</svg>
