<?xml version="1.0" standalone="no"?>
<!DOCTYPE svg PUBLIC "-//W3C//DTD SVG 20010904//EN"
 "http://www.w3.org/TR/2001/REC-SVG-20010904/DTD/svg10.dtd">
<svg version="1.0" xmlns="http://www.w3.org/2000/svg"
 width="209.000000pt" height="209.000000pt" viewBox="0 0 209.000000 209.000000"
 preserveAspectRatio="xMidYMid meet">
<metadata>
Created by potrace 1.14, written by Peter Selinger 2001-2017
</metadata>
<g transform="translate(0.000000,209.000000) scale(0.100000,-0.100000)"
fill="#000000" stroke="none">
<path d="M700 2016 c0 -2 8 -10 18 -17 15 -13 16 -12 3 4 -13 16 -21 21 -21
13z"/>
<path d="M916 1977 c3 -10 9 -15 12 -12 3 3 0 11 -7 18 -10 9 -11 8 -5 -6z"/>
<path d="M616 1963 c-6 -14 -5 -15 5 -6 7 7 10 15 7 18 -3 3 -9 -2 -12 -12z"/>
<path d="M815 1970 c-4 -6 -1 -9 7 -8 7 2 12 -3 10 -10 -1 -8 2 -11 8 -7 8 5
7 11 -1 21 -14 17 -16 17 -24 4z"/>
<path d="M980 1976 c0 -2 8 -10 18 -17 15 -13 16 -12 3 4 -13 16 -21 21 -21
13z"/>
<path d="M1070 1976 c0 -2 7 -7 16 -10 8 -3 12 -2 9 4 -6 10 -25 14 -25 6z"/>
<path d="M955 1960 c-3 -5 -3 -10 2 -10 4 0 1 -5 -7 -10 -8 -5 -10 -10 -5 -10
6 0 17 5 25 10 11 7 11 10 2 10 -7 0 -10 5 -7 10 3 6 4 10 1 10 -3 0 -8 -4
-11 -10z"/>
<path d="M639 1943 c-13 -17 -13 -17 6 -3 11 8 22 16 24 17 2 2 0 3 -6 3 -6 0
-17 -8 -24 -17z"/>
<path d="M870 1942 c9 -18 8 -23 -4 -28 -8 -3 -12 -12 -10 -19 4 -9 -1 -12
-13 -10 -10 2 -20 4 -23 4 -3 1 0 5 6 9 7 5 6 15 -3 32 -8 16 -13 19 -13 9 0
-9 -7 -22 -15 -29 -13 -10 -19 -10 -35 5 -24 21 -27 13 -4 -9 14 -14 14 -16 0
-16 -8 0 -22 12 -31 28 -15 26 -15 26 -9 2 6 -21 5 -23 -8 -12 -13 10 -17 10
-21 -2 -4 -10 -1 -13 7 -10 14 5 16 -39 3 -53 -4 -4 2 -16 15 -26 13 -10 18
-16 11 -13 -6 4 -15 1 -18 -4 -5 -8 -14 -5 -28 7 -18 16 -20 16 -14 1 5 -13 0
-16 -24 -13 -16 2 -27 0 -24 -5 6 -10 -15 -8 -34 4 -11 7 -13 5 -8 -7 4 -11 1
-15 -14 -12 -20 4 -44 -26 -31 -40 4 -5 2 -5 -4 -2 -7 4 -18 0 -25 -9 -11 -14
-10 -18 6 -30 10 -8 15 -14 9 -14 -5 0 -18 7 -28 15 -25 19 -37 19 -30 0 4 -8
1 -15 -6 -15 -6 0 -8 5 -5 10 3 6 2 10 -2 10 -5 0 -14 -10 -22 -21 -12 -20
-11 -21 4 -15 19 7 45 -9 45 -27 0 -6 -6 -2 -14 8 -13 18 -15 17 -52 -18 -31
-29 -36 -39 -26 -49 6 -6 12 -17 12 -23 0 -5 -5 -3 -10 5 -5 8 -15 15 -22 15
-7 0 -11 9 -10 20 3 16 2 17 -12 6 -12 -11 -14 -17 -5 -27 6 -8 17 -14 25 -14
7 0 0 -14 -17 -31 -29 -30 -30 -33 -13 -42 21 -11 34 -27 34 -41 0 -4 -9 2
-19 15 -11 13 -22 21 -26 17 -4 -4 3 -17 14 -30 12 -12 18 -24 12 -26 -5 -2
-22 -19 -37 -39 -24 -31 -24 -34 -5 -24 25 14 43 6 39 -16 -2 -8 7 -19 20 -24
18 -7 22 -6 19 4 -2 6 -9 11 -14 10 -5 -1 -10 8 -10 20 -1 12 -7 23 -13 25 -5
2 -10 8 -10 14 0 6 7 4 17 -3 14 -12 16 -12 11 2 -3 9 -2 22 3 30 6 9 7 -1 4
-29 -4 -28 -2 -41 6 -40 16 4 20 -33 7 -50 -9 -10 -8 -16 3 -23 9 -5 0 -7 -25
-4 -32 4 -37 3 -27 -8 6 -8 8 -17 4 -20 -3 -4 -1 -7 5 -7 7 0 12 4 12 9 0 5
12 9 26 9 14 0 21 -4 15 -7 -7 -5 -4 -13 9 -24 11 -9 22 -12 25 -7 3 5 1 11
-5 15 -13 8 -13 25 0 25 6 0 9 -6 8 -12 -2 -7 3 -12 9 -10 18 3 16 -8 -2 -22
-13 -10 -11 -15 14 -37 17 -15 33 -24 36 -20 4 3 6 2 5 -4 -5 -21 1 -25 19
-16 16 9 18 8 14 -10 -3 -11 -9 -17 -12 -12 -9 13 -57 9 -77 -7 -14 -12 -16
-12 -9 -1 6 10 4 12 -5 6 -9 -6 -11 -4 -5 6 7 11 5 11 -11 -1 -18 -14 -18 -14
-4 4 8 11 10 17 4 13 -7 -4 -17 0 -23 7 -9 10 -9 16 -1 21 8 5 5 12 -7 22 -10
8 -12 12 -6 8 9 -4 11 -1 7 10 -6 14 -8 14 -20 -2 -13 -17 -14 -17 -8 2 3 12
-1 10 -10 -7 -11 -19 -22 -25 -34 -22 -11 4 -8 -1 8 -15 14 -11 28 -21 32 -21
5 0 7 -6 5 -12 -1 -7 6 -12 16 -11 13 1 17 -4 13 -14 -4 -9 4 -23 20 -36 l26
-20 -23 -13 c-13 -7 -20 -13 -16 -14 17 0 47 21 42 31 -10 15 12 10 25 -7 8
-8 21 -19 31 -25 15 -7 17 -6 13 6 -3 8 -11 12 -18 8 -6 -4 -4 2 4 12 12 15
12 17 1 10 -10 -6 -12 -4 -6 5 6 9 4 11 -5 5 -9 -6 -11 -4 -5 5 5 9 4 11 -3 6
-8 -5 -10 -1 -6 11 6 16 4 15 -10 -2 -10 -11 -14 -14 -10 -6 5 10 3 12 -7 7
-8 -4 -6 -1 4 7 10 9 30 13 45 11 15 -3 35 -5 44 -5 10 0 20 -4 23 -10 3 -5
-1 -6 -9 -3 -26 10 -18 -4 12 -20 15 -8 22 -15 17 -16 -6 0 -21 8 -35 17 -22
16 -23 16 -17 -1 4 -10 7 -20 7 -22 0 -3 4 -3 8 0 5 3 8 -8 7 -25 -1 -16 2
-32 7 -35 5 -3 3 -13 -5 -22 -45 -52 -62 -129 -62 -272 1 -195 74 -312 203
-326 26 -3 53 -7 60 -10 7 -2 10 1 7 6 -3 6 2 10 12 10 10 0 35 11 55 25 20
14 42 25 47 25 6 0 10 5 8 11 -1 6 5 14 13 16 13 4 13 3 0 -6 -13 -9 -13 -11
-1 -11 11 0 10 -4 -5 -16 -18 -15 -18 -15 0 -10 16 6 17 4 6 -9 -10 -12 -10
-15 1 -15 11 0 11 -2 -1 -10 -9 -6 -11 -13 -5 -18 17 -12 15 -44 -2 -37 -13 4
-14 3 -3 -10 7 -9 13 -27 14 -41 l1 -26 112 -1 c103 0 112 -1 122 -21 l11 -21
-5 21 c-5 19 -1 21 30 19 45 -3 72 19 53 43 -8 9 -8 13 -2 9 14 -8 27 20 17
35 -3 7 -1 8 5 4 7 -4 12 -1 12 8 0 10 -6 13 -17 10 -15 -5 -16 -4 -3 5 23 16
36 -4 22 -34 -14 -30 -15 -35 -4 -35 4 0 12 10 17 22 6 13 17 23 25 24 9 0 10
-1 3 -3 -22 -8 -14 -21 12 -19 20 1 23 5 19 26 -4 22 -3 21 9 -5 8 -16 12 -36
9 -43 -4 -12 -1 -12 16 -1 17 11 18 15 6 26 -11 11 -11 18 -2 33 7 11 14 17
17 15 2 -3 -1 -11 -8 -18 -9 -11 -8 -17 5 -28 14 -11 15 -10 12 7 -2 16 3 19
30 18 24 0 31 4 27 13 -2 8 0 11 5 8 6 -3 10 -13 10 -21 0 -11 -6 -14 -22 -9
-19 5 -20 4 -6 -5 19 -12 51 -3 41 13 -3 5 -1 7 5 3 6 -3 13 -2 17 4 3 5 -1
10 -9 10 -8 0 -17 4 -20 9 -4 5 4 7 16 3 16 -4 19 -2 13 8 -5 9 -4 11 3 6 7
-4 12 -2 12 5 0 7 3 9 6 6 4 -4 1 -14 -7 -24 -12 -15 -12 -16 3 -10 17 6 73
-16 83 -34 9 -14 -8 -11 -34 8 -15 10 -21 11 -16 3 5 -9 4 -11 -3 -6 -8 5 -10
2 -6 -8 3 -9 1 -16 -5 -16 -6 0 -10 3 -10 8 3 19 -2 32 -12 32 -8 0 -7 -6 2
-17 12 -14 12 -16 0 -8 -10 6 -12 4 -6 -6 8 -12 6 -12 -8 0 -12 9 -17 10 -17
2 0 -7 -4 -10 -8 -7 -11 7 -33 -8 -35 -25 -3 -20 -17 -39 -27 -39 -5 0 0 16
12 36 15 26 18 35 7 32 -8 -3 -13 -11 -11 -17 1 -6 -3 -11 -9 -11 -5 0 -7 -5
-3 -12 4 -7 3 -8 -4 -4 -6 4 -8 14 -5 22 5 14 3 14 -15 3 l-22 -14 22 -11 c16
-9 18 -13 7 -20 -8 -5 -23 -10 -34 -11 -17 -2 -16 0 5 13 14 8 17 13 7 10 -12
-4 -16 -2 -12 7 4 6 0 4 -8 -6 -9 -10 -18 -14 -21 -8 -3 5 -1 11 6 13 8 3 6 7
-5 11 -10 4 -16 2 -14 -6 1 -7 -6 -11 -17 -9 -13 3 -17 -1 -13 -12 3 -8 2 -18
-3 -21 -17 -10 -11 -25 10 -25 11 0 20 5 20 11 0 5 4 8 10 4 5 -3 7 -13 4 -23
-5 -14 -4 -15 5 -2 6 9 7 18 1 24 -15 15 -12 30 4 17 8 -6 18 -11 22 -10 21 3
35 -2 29 -11 -3 -5 -1 -10 5 -10 7 0 9 8 4 22 -6 20 -5 21 8 10 13 -10 17 -10
22 4 6 15 8 15 31 0 14 -9 25 -12 25 -7 0 5 -6 11 -12 14 -7 2 -10 7 -7 11 4
4 13 0 22 -8 13 -14 16 -14 21 0 3 9 11 12 18 8 18 -11 78 -13 78 -2 0 4 -14
6 -32 3 -27 -5 -30 -4 -18 10 7 9 8 15 2 15 -6 0 -12 -6 -15 -12 -2 -7 -8 -10
-12 -6 -10 10 14 40 26 32 5 -3 9 0 9 5 0 6 4 11 9 11 5 0 8 -8 6 -18 -1 -9 0
-12 2 -5 2 6 11 14 19 17 11 4 14 1 9 -13 -3 -11 -1 -22 4 -26 7 -4 8 1 4 11
-4 11 -3 15 5 10 6 -3 14 -1 18 5 4 7 3 9 -3 6 -6 -4 -14 1 -18 11 -14 30 -13
40 2 46 10 4 13 1 8 -13 -7 -23 12 -38 28 -22 9 9 8 11 -5 6 -11 -4 -18 -2
-18 4 0 6 9 11 19 11 11 0 23 5 27 11 4 8 -1 9 -17 4 -23 -7 -23 -7 -6 11 17
18 19 18 38 -6 18 -22 18 -20 -2 15 -26 47 -35 57 -26 32 4 -10 3 -16 -2 -13
-4 3 -16 -3 -26 -14 -13 -14 -26 -18 -49 -15 -24 4 -28 3 -16 -6 12 -9 12 -10
1 -7 -21 6 -26 28 -7 28 19 0 19 4 5 33 -10 21 -10 21 5 3 10 -12 16 -15 16
-7 0 7 6 11 14 8 8 -3 20 1 28 10 11 14 10 15 -12 9 -19 -6 -21 -5 -10 3 8 6
10 11 4 11 -7 0 -15 7 -18 16 -5 14 -4 15 8 5 8 -7 16 -8 18 -4 3 4 3 2 2 -4
-2 -7 1 -13 6 -13 13 0 42 31 35 38 -3 4 -11 0 -16 -8 -9 -13 -10 -13 -6 0 2
8 12 15 22 15 20 0 67 63 58 78 -4 6 -1 7 7 2 8 -5 11 -3 8 6 -3 8 -14 13 -24
11 -11 -2 -15 1 -9 5 11 9 45 67 45 78 0 4 -7 2 -15 -5 -19 -16 -34 -5 -28 20
4 15 1 18 -16 15 -12 -2 -19 0 -16 5 10 17 40 3 39 -19 -1 -27 16 -28 23 -1 3
11 9 20 14 20 5 0 6 -7 3 -15 -5 -11 -2 -13 10 -9 9 3 13 10 10 15 -3 5 3 6
12 2 15 -6 15 -4 -1 21 -10 14 -25 31 -34 37 -12 7 -13 12 -3 15 6 3 9 11 5
17 -4 7 1 6 10 -2 18 -14 24 -2 7 15 -7 7 -3 14 14 22 25 11 47 0 26 -13 -8
-5 -7 -11 1 -21 6 -8 7 -14 2 -14 -5 0 -10 -19 -11 -42 -4 -87 -6 -98 -17 -88
-8 7 -12 5 -12 -5 0 -8 3 -12 7 -10 4 2 7 -2 7 -10 0 -8 -4 -12 -8 -9 -4 2 -6
-5 -4 -16 3 -13 0 -18 -7 -14 -7 5 -8 2 -3 -6 6 -9 4 -11 -5 -5 -8 5 -11 4 -6
-3 3 -6 2 -13 -3 -17 -6 -3 -9 -11 -7 -18 1 -7 1 -9 -1 -4 -3 4 -9 7 -15 7 -7
0 -6 -5 1 -14 9 -10 5 -21 -19 -46 -17 -18 -28 -36 -24 -39 4 -3 9 0 11 7 3 6
9 10 14 6 5 -3 1 -13 -10 -22 -19 -17 -19 -17 1 -47 11 -16 17 -22 14 -12 -3
11 0 20 9 23 8 4 15 13 15 22 0 13 -3 12 -14 -4 -8 -10 -17 -17 -19 -14 -7 7
13 32 43 54 14 10 18 16 9 13 -9 -3 -21 -2 -27 2 -15 9 13 52 31 47 6 -1 9 -1
5 1 -5 3 -8 9 -8 14 0 14 24 6 33 -11 4 -9 5 -4 2 12 -4 20 -2 26 7 23 17 -6
45 12 34 22 -5 4 -11 2 -13 -4 -3 -7 -9 -13 -14 -13 -6 0 -7 6 -3 13 6 9 3 8
-9 -1 -14 -12 -16 -11 -14 7 1 15 6 19 19 16 11 -4 21 2 28 15 6 11 16 17 22
14 7 -4 8 -3 4 4 -4 6 -12 9 -20 6 -7 -3 -13 2 -13 11 0 8 7 14 16 13 9 -2 16
3 16 10 0 7 7 17 15 23 12 9 12 10 -3 5 -12 -4 -17 -2 -14 6 2 7 9 12 15 11 7
-2 9 4 5 14 -5 12 -3 14 8 7 20 -12 40 -14 33 -3 -3 5 -9 7 -14 4 -10 -6 -32
20 -24 28 3 3 -5 3 -18 0 -16 -3 -19 -2 -10 5 11 7 8 11 -9 15 -18 5 -21 9
-12 18 6 6 9 18 6 25 -4 10 0 12 11 8 12 -5 13 -10 5 -25 -5 -10 -6 -19 -2
-19 5 0 14 14 21 30 8 18 18 27 25 23 7 -3 9 -3 5 2 -4 4 -2 15 5 24 11 14 10
15 -7 1 -11 -8 -22 -15 -25 -15 -3 0 -5 -6 -3 -12 2 -8 -3 -10 -13 -7 -21 8
-19 20 5 37 17 12 18 16 6 20 -14 6 -16 30 -3 43 4 4 7 11 7 16 0 5 -7 3 -15
-6 -9 -8 -15 -19 -14 -23 3 -19 -2 -34 -10 -29 -5 3 -7 24 -6 46 1 22 -2 40
-7 40 -5 0 -6 6 -2 13 6 9 4 9 -7 0 -22 -21 -33 -15 -13 8 17 19 19 19 31 3 7
-10 13 -13 13 -7 0 7 -5 15 -10 18 -6 4 -7 11 -4 17 4 7 2 8 -5 4 -8 -5 -10 0
-7 18 3 14 1 26 -4 26 -5 0 -8 -13 -6 -30 2 -16 -2 -34 -9 -40 -9 -8 -12 -1
-11 27 1 21 5 44 9 51 5 7 4 12 -2 12 -6 0 -11 -5 -11 -11 0 -5 -3 -8 -8 -6
-4 3 -22 -3 -41 -12 -21 -11 -30 -21 -22 -25 6 -4 11 -3 11 2 0 5 14 9 30 8
29 -1 36 -6 24 -19 -4 -3 -15 -2 -25 3 -12 7 -20 7 -24 0 -6 -9 7 -14 27 -11
4 0 12 -9 19 -20 8 -16 8 -20 -1 -14 -8 5 -7 1 1 -13 11 -17 16 -19 28 -9 12
10 14 9 8 -6 -4 -11 -3 -16 3 -12 6 3 10 1 10 -5 0 -7 -6 -10 -12 -7 -48 19
-53 20 -40 6 7 -8 17 -14 23 -14 8 0 12 -9 8 -17 -1 -2 -2 -17 -3 -34 -1 -21
2 -30 10 -27 7 2 15 -1 19 -7 4 -7 -2 -9 -18 -6 -14 2 -34 -2 -45 -10 -17 -12
-21 -12 -26 1 -3 9 -12 12 -23 9 -15 -5 -15 -4 -3 4 10 8 18 8 27 0 8 -6 17
-8 20 -4 4 4 1 11 -7 16 -8 6 -10 10 -4 10 5 0 15 -5 22 -12 9 -9 12 -9 12 -1
0 14 -19 27 -40 28 -8 0 -15 7 -15 15 0 9 7 14 19 12 24 -4 11 17 -18 28 -13
4 -22 17 -23 31 -2 18 0 20 7 9 5 -8 6 -18 4 -22 -3 -4 1 -8 9 -8 8 0 20 -7
27 -15 7 -8 18 -15 24 -15 6 0 -4 14 -22 31 -18 17 -30 34 -27 37 3 4 10 0 15
-8 6 -8 10 -13 11 -10 0 3 3 16 5 30 4 19 2 22 -8 12 -18 -18 -41 -15 -34 4 4
11 1 14 -12 10 -22 -7 -51 32 -32 44 8 5 9 10 2 14 -6 4 -15 0 -19 -9 -7 -12
-11 -11 -21 6 -8 12 -9 18 -3 14 6 -3 11 -1 11 5 0 7 8 9 22 4 20 -6 21 -5 9
9 -7 9 -17 15 -21 12 -5 -3 -11 -1 -15 4 -7 13 -48 10 -57 -4 -5 -7 -8 -7 -8
1 0 17 37 47 49 39 6 -3 11 -1 11 6 0 8 4 8 15 -1 10 -9 15 -9 15 -1 0 6 8 3
18 -6 12 -12 14 -21 8 -25 -7 -5 -5 -8 4 -8 12 0 12 -2 2 -9 -11 -7 -10 -9 3
-14 10 -5 14 -3 9 5 -5 7 -3 8 5 3 7 -4 11 -15 8 -25 -3 -13 0 -17 9 -13 8 3
11 10 7 16 -3 6 -1 7 6 3 6 -4 14 -1 17 8 3 8 13 12 22 9 15 -4 15 -3 2 6 -11
8 -18 7 -26 -4 -9 -12 -14 -12 -33 1 -22 16 -22 17 -4 37 16 19 16 20 1 8 -10
-7 -18 -9 -18 -3 0 14 25 33 33 25 4 -3 7 -1 7 6 0 11 -6 11 -68 -3 -44 -10
-61 15 -37 54 4 6 -1 7 -11 3 -10 -4 -15 -2 -11 3 3 6 -6 10 -23 10 -16 0 -27
-3 -24 -8 3 -5 9 -6 14 -3 5 3 7 -3 5 -15 -2 -11 -1 -19 3 -19 4 1 14 1 22 0
13 -1 13 -2 0 -11 -13 -9 -13 -10 0 -10 8 0 2 -7 -14 -15 -16 -9 -34 -14 -40
-11 -6 2 -3 5 7 5 11 1 15 6 11 13 -4 7 -3 8 4 4 7 -4 12 -3 12 3 0 17 -20 23
-26 7 -5 -12 -9 -13 -24 -3 -13 8 -16 15 -9 23 7 8 6 14 -1 19 -5 3 -10 1 -10
-6 0 -8 -4 -8 -15 1 -9 7 -13 21 -10 31 4 11 2 19 -4 19 -6 0 -11 -4 -11 -10
0 -5 -5 -10 -11 -10 -8 0 -7 6 2 16 12 15 11 16 -11 10 l-25 -7 23 14 c12 7
20 16 16 20 -4 4 -13 2 -21 -4 -9 -9 -13 -8 -13 0 0 6 5 11 11 11 5 0 7 5 4
10 -3 6 -1 10 4 10 6 0 11 -5 11 -10 0 -6 6 -5 14 2 16 15 10 32 -7 22 -7 -4
-8 -3 -4 2 5 5 13 10 18 10 22 3 23 5 9 14 -13 8 -13 10 2 10 10 0 22 10 28
23 11 21 10 21 -4 3 -9 -11 -18 -17 -21 -15 -3 3 3 14 13 25 9 10 18 33 20 49
4 57 3 107 -2 113 -3 3 0 12 7 20 7 9 7 13 1 9 -7 -4 -18 9 -29 32 -9 21 -30
53 -45 69 -15 17 -25 34 -21 37 3 4 1 5 -4 4 -17 -5 -56 12 -50 21 3 5 0 12
-6 16 -8 4 -9 3 -5 -4 9 -14 3 -15 -54 -1 -25 6 -56 12 -70 13 -14 1 -29 4
-35 7 -5 3 -42 5 -81 4 -63 0 -70 2 -66 17 2 10 8 15 13 12 5 -3 6 -11 3 -17
-5 -9 -4 -9 6 0 7 6 20 9 29 6 12 -4 13 -3 2 5 -9 7 -10 12 -2 16 10 6 15 -5
12 -26 0 -4 9 -6 20 -5 19 1 19 2 3 14 -15 11 -14 13 11 23 15 6 25 13 22 16
-3 3 -14 1 -25 -5 -11 -6 -30 -8 -43 -4 -13 3 -34 5 -46 5 -20 0 -21 3 -11 22
6 11 7 18 3 14 -5 -4 -14 -3 -21 3 -20 16 -36 2 -24 -21 14 -25 13 -29 -7 -26
-9 2 -19 9 -21 16 -3 8 0 10 9 5 8 -5 5 1 -5 13 -11 12 -24 22 -30 22 -6 0 -3
-7 6 -14 10 -7 15 -16 11 -19 -3 -4 -13 -1 -21 6 -13 9 -14 9 -8 0 4 -7 3 -13
-2 -13 -16 0 -22 13 -12 25 8 9 6 14 -5 19 -9 3 -13 11 -9 17 4 8 3 9 -5 5 -9
-6 -9 -11 0 -22 6 -8 8 -18 4 -22 -4 -4 -10 -1 -12 6 -4 10 -8 10 -19 1 -8 -6
-11 -15 -8 -20 3 -5 0 -9 -5 -9 -14 0 -14 23 -1 36 7 7 5 17 -6 30 -14 18 -15
18 -4 -4z m-61 -49 c-8 -9 -9 -14 -2 -10 6 4 14 4 17 -1 8 -13 71 -8 69 6 -4
15 3 15 28 1 11 -5 17 -14 14 -20 -4 -5 -1 -9 5 -9 6 0 8 -4 5 -10 -3 -6 1 -7
10 -3 12 4 13 8 5 13 -9 5 -9 9 -1 14 6 4 11 2 11 -4 0 -6 4 -9 9 -5 5 3 12 1
15 -4 5 -7 41 -8 41 -1 0 1 11 3 25 4 32 4 52 -3 44 -16 -4 -6 -10 -5 -15 3
-8 11 -12 10 -24 -5 -8 -11 -15 -16 -15 -12 0 4 -5 4 -11 0 -8 -5 -8 -9 1 -14
7 -4 -8 -7 -33 -6 -32 0 -43 4 -40 13 3 7 1 13 -5 13 -5 0 -12 -6 -15 -13 -5
-14 -61 -17 -73 -4 -10 10 -26 9 -20 -1 3 -5 -14 -8 -37 -7 -23 1 -47 -2 -54
-7 -7 -6 -16 -2 -25 11 -8 12 -17 19 -19 16 -4 -3 -4 51 0 64 1 2 7 -2 15 -8
19 -16 48 -10 65 12 7 10 15 16 18 13 3 -3 0 -13 -8 -23z m239 -1 c6 -18 -15
-14 -22 4 -4 10 -1 14 6 12 6 -2 14 -10 16 -16z m-493 -142 c3 -5 1 -10 -4
-10 -6 0 -11 5 -11 10 0 6 2 10 4 10 3 0 8 -4 11 -10z m-5 -25 c0 -2 -9 -9
-20 -15 -12 -6 -20 -7 -20 -1 0 5 8 12 18 14 9 3 18 5 20 6 1 0 2 -1 2 -4z
m-60 -55 c0 -5 -4 -10 -10 -10 -5 0 -10 5 -10 10 0 6 5 10 10 10 6 0 10 -4 10
-10z m40 -14 c0 -2 -7 -6 -15 -10 -8 -3 -15 -1 -15 4 0 6 7 10 15 10 8 0 15
-2 15 -4z m-88 -33 c-6 -3 -10 -9 -6 -14 6 -10 -9 -12 -19 -2 -4 3 1 12 11 19
9 7 19 10 22 7 3 -3 -1 -8 -8 -10z m45 -2 c0 -11 -5 -18 -9 -15 -4 3 -5 11 -1
19 7 21 12 19 10 -4z m54 -18 c12 -16 12 -17 -2 -6 -9 7 -20 9 -24 5 -5 -4 -5
-1 -1 6 9 16 11 15 27 -5z m-131 -13 c0 -5 -4 -10 -10 -10 -5 0 -10 5 -10 10
0 6 5 10 10 10 6 0 10 -4 10 -10z m136 -12 c5 4 5 3 1 -2 -12 -15 -34 -15 -34
0 0 9 4 11 12 4 7 -5 16 -6 21 -2z m-70 -11 c3 -3 -6 -4 -22 -1 -37 7 -47 16
-12 12 15 -2 30 -7 34 -11z m-52 -19 c-5 -7 -2 -9 7 -6 11 4 15 -1 15 -18 0
-13 -4 -24 -9 -24 -5 0 -7 6 -4 14 3 8 -1 17 -9 20 -13 5 -11 26 2 26 3 0 2
-5 -2 -12z m-24 -21 c0 -5 -9 -6 -20 -2 -16 5 -19 3 -14 -12 5 -14 4 -15 -4
-3 -6 8 -9 17 -6 21 6 10 44 7 44 -4z m125 -17 c2 -12 1 -20 -2 -16 -4 4 -8
16 -10 28 -4 28 6 18 12 -12z m-35 16 c0 -2 -8 -10 -17 -17 -16 -13 -17 -12
-4 4 13 16 21 21 21 13z m-140 -26 c0 -5 -2 -10 -4 -10 -3 0 -8 5 -11 10 -3 6
-1 10 4 10 6 0 11 -4 11 -10z m60 -20 c6 -11 9 -20 8 -20 -2 0 -11 9 -21 20
-9 11 -13 20 -7 20 5 0 14 -9 20 -20z m575 -10 c3 -5 1 -10 -4 -10 -6 0 -11 5
-11 10 0 6 2 10 4 10 3 0 8 -4 11 -10z m122 -5 c0 -8 -4 -12 -9 -9 -5 3 -6 10
-3 15 9 13 12 11 12 -6z m-717 -15 c0 -5 -4 -10 -10 -10 -5 0 -10 5 -10 10 0
6 5 10 10 10 6 0 10 -4 10 -10z m62 -17 c-9 -3 -10 -9 -3 -17 8 -9 6 -13 -4
-13 -8 0 -13 3 -10 5 3 3 1 10 -5 16 -6 8 -2 12 13 13 12 0 16 -1 9 -4z m43
-3 c-3 -5 -12 -10 -18 -10 -7 0 -6 4 3 10 19 12 23 12 15 0z m30 -9 c3 -5 2
-12 -3 -15 -5 -3 -9 1 -9 9 0 17 3 19 12 6z m245 -5 c0 -3 -4 -8 -10 -11 -5
-3 -10 -1 -10 4 0 6 5 11 10 11 6 0 10 -2 10 -4z m34 -12 c3 -8 2 -12 -4 -9
-6 3 -10 10 -10 16 0 14 7 11 14 -7z m-399 -4 c3 -6 -1 -7 -9 -4 -18 7 -21 14
-7 14 6 0 13 -4 16 -10z m462 -15 c0 -8 -4 -12 -9 -9 -5 3 -6 10 -3 15 9 13
12 11 12 -6z m-396 -12 c13 -16 12 -17 -3 -4 -10 7 -18 15 -18 17 0 8 8 3 21
-13z m-67 -9 c5 -14 4 -15 -9 -4 -17 14 -19 20 -6 20 5 0 12 -7 15 -16z m210
8 c2 -4 -4 -8 -14 -8 -10 0 -16 4 -14 8 3 4 9 8 14 8 5 0 11 -4 14 -8z m-160
-18 c3 -8 2 -12 -4 -9 -6 3 -10 10 -10 16 0 14 7 11 14 -7z m331 -3 c-9 -8
-36 -10 -30 -2 2 4 11 8 20 8 8 0 13 -3 10 -6z m-367 -36 c-3 -3 -9 2 -12 12
-6 14 -5 15 5 6 7 -7 10 -15 7 -18z m25 0 c-3 -9 -8 -14 -10 -11 -3 3 -2 9 2
15 9 16 15 13 8 -4z m44 -18 c1 -11 1 -18 0 -16 -2 2 -8 11 -15 20 -9 12 -9
16 1 16 7 0 14 -9 14 -20z m43 11 c0 -4 -4 -8 -9 -8 -6 0 -12 4 -15 8 -3 5 1
9 9 9 8 0 15 -4 15 -9z m217 -3 c0 -8 -4 -12 -9 -9 -5 3 -6 10 -3 15 9 13 12
11 12 -6z m-334 -22 c-3 -7 -6 -13 -8 -13 -2 0 -5 6 -8 13 -3 8 1 14 8 14 7 0
11 -6 8 -14z m51 1 c3 -8 2 -12 -4 -9 -6 3 -10 10 -10 16 0 14 7 11 14 -7z
m116 10 c0 -8 -19 -13 -24 -6 -3 5 1 9 9 9 8 0 15 -2 15 -3z m34 -2 c3 -5 -1
-9 -9 -9 -8 0 -12 4 -9 9 3 4 7 8 9 8 2 0 6 -4 9 -8z m804 -17 c-3 -3 -9 2
-12 12 -6 14 -5 15 5 6 7 -7 10 -15 7 -18z m-974 -1 c3 -8 2 -12 -4 -9 -6 3
-10 10 -10 16 0 14 7 11 14 -7z m91 -4 c3 -6 -1 -7 -9 -4 -18 7 -21 14 -7 14
6 0 13 -4 16 -10z m235 -25 c0 -5 -5 -3 -10 5 -5 8 -10 20 -10 25 0 6 5 3 10
-5 5 -8 10 -19 10 -25z m-292 5 c-7 -10 -14 -17 -17 -15 -4 4 18 35 25 35 2 0
-1 -9 -8 -20z m36 2 c3 -5 -1 -9 -9 -9 -8 0 -12 4 -9 9 3 4 7 8 9 8 2 0 6 -4
9 -8z m947 -25 c-10 -9 -11 -8 -5 6 3 10 9 15 12 12 3 -3 0 -11 -7 -18z m-930
0 c-6 -8 -8 -16 -5 -20 3 -3 -2 -4 -12 -3 -10 2 -20 9 -22 17 -3 11 -2 11 6 1
7 -10 11 -10 22 3 7 8 15 15 17 15 3 0 0 -6 -6 -13z m44 3 c3 -6 -1 -7 -9 -4
-18 7 -21 14 -7 14 6 0 13 -4 16 -10z m115 0 c0 -5 -2 -10 -4 -10 -3 0 -8 5
-11 10 -3 6 -1 10 4 10 6 0 11 -4 11 -10z m915 0 c3 -5 2 -10 -4 -10 -5 0 -13
5 -16 10 -3 6 -2 10 4 10 5 0 13 -4 16 -10z m-1140 -20 c-3 -5 -12 -10 -18
-10 -7 0 -6 4 3 10 19 12 23 12 15 0z m1025 6 c0 -2 -7 -7 -16 -10 -8 -3 -12
-2 -9 4 6 10 25 14 25 6z m-1003 -31 c0 -8 -4 -12 -9 -9 -4 3 -8 9 -8 15 0 5
4 9 8 9 5 0 9 -7 9 -15z m1022 -8 c0 -9 -2 -8 -6 1 -2 6 -10 9 -15 6 -7 -4 -8
-2 -4 5 9 13 26 5 25 -12z m-1139 -8 c0 -5 -5 -9 -11 -9 -5 0 -7 5 -3 12 5 7
3 8 -6 3 -9 -5 -5 -13 15 -29 l27 -22 -23 -1 c-15 -1 -19 1 -11 6 9 5 4 11
-15 20 -27 12 -27 13 -9 27 19 14 36 11 36 -7z m1320 6 c-7 -9 -15 -13 -19
-10 -3 3 1 10 9 15 21 14 24 12 10 -5z m-1023 -10 c0 -8 -4 -12 -9 -9 -5 3 -6
10 -3 15 9 13 12 11 12 -6z m-99 -20 c-3 -3 -9 2 -12 12 -6 14 -5 15 5 6 7 -7
10 -15 7 -18z m962 5 c0 -5 -2 -10 -4 -10 -3 0 -8 5 -11 10 -3 6 -1 10 4 10 6
0 11 -4 11 -10z m53 -42 c-2 -5 -10 -8 -18 -8 -8 0 -16 3 -18 8 -3 4 5 7 18 7
13 0 21 -3 18 -7z m-1166 -30 c3 -21 3 -21 -17 -3 -15 14 -17 20 -8 26 15 10
21 5 25 -23z m177 21 c9 8 13 7 13 -3 0 -17 -30 -14 -33 3 -2 7 0 7 3 1 3 -7
9 -8 17 -1z m1016 -24 c14 -19 14 -19 -2 -6 -10 7 -18 18 -18 24 0 6 1 8 3 6
1 -2 9 -13 17 -24z m-940 -1 c0 -8 -19 -13 -24 -6 -3 5 1 9 9 9 8 0 15 -2 15
-3z m905 -4 c-3 -5 -12 -10 -18 -10 -7 0 -6 4 3 10 19 12 23 12 15 0z m-1114
-17 c13 -16 12 -17 -3 -4 -10 7 -18 15 -18 17 0 8 8 3 21 -13z m127 -15 c-5
-14 -38 -20 -38 -6 0 6 7 8 15 4 8 -3 15 -1 15 4 0 6 3 10 6 10 3 0 4 -5 2
-12z m1025 -1 c3 -8 -1 -14 -9 -14 -15 0 -18 9 -7 20 9 9 10 9 16 -6z m32 -7
c-3 -5 -1 -10 6 -10 7 0 10 -3 6 -6 -9 -9 -28 6 -22 17 4 5 8 9 11 9 3 0 2 -4
-1 -10z m-1075 -30 c0 -5 -4 -10 -10 -10 -5 0 -10 5 -10 10 0 6 5 10 10 10 6
0 10 -4 10 -10z m1083 -20 c4 0 5 5 1 12 -4 7 -3 8 5 4 6 -4 9 -11 6 -16 -3
-4 0 -10 7 -12 7 -3 4 -7 -7 -12 -11 -4 -16 -4 -13 0 4 3 -1 14 -10 23 -10 9
-13 13 -8 9 6 -5 14 -8 19 -8z m-32 -17 c13 -16 12 -17 -3 -4 -17 13 -22 21
-14 21 2 0 10 -8 17 -17z m83 -42 c-2 -3 -12 3 -22 13 -16 17 -16 18 5 5 12
-7 20 -15 17 -18z m-39 10 c3 -5 2 -12 -3 -15 -5 -3 -9 1 -9 9 0 17 3 19 12 6z
m142 -18 c-12 -11 14 -32 31 -26 16 5 16 4 0 -12 -27 -28 -52 -1 -39 43 1 1 4
2 8 2 3 0 3 -3 0 -7z m-102 -35 c5 4 5 2 1 -5 -9 -16 -33 -6 -33 14 0 14 1 14
12 -1 7 -8 16 -12 20 -8z m-45 -2 c0 -2 -8 -10 -17 -17 -16 -13 -17 -12 -4 4
13 16 21 21 21 13z m70 -81 c0 -5 -5 -3 -10 5 -5 8 -10 20 -10 25 0 6 5 3 10
-5 5 -8 10 -19 10 -25z m-943 -15 c1 -11 -2 -20 -7 -20 -6 0 -7 17 -1 38 3 8
7 -1 8 -18z m868 10 c3 -6 -1 -7 -9 -4 -18 7 -21 14 -7 14 6 0 13 -4 16 -10z
m-325 -20 c0 -5 -2 -10 -4 -10 -3 0 -8 5 -11 10 -3 6 -1 10 4 10 6 0 11 -4 11
-10z m517 -20 c14 0 14 -2 0 -24 -9 -13 -15 -33 -12 -44 2 -13 -2 -19 -13 -18
-13 1 -16 -6 -14 -31 1 -18 -2 -33 -7 -33 -12 0 -22 26 -13 35 3 3 8 18 9 33
2 15 5 41 7 57 3 17 5 37 5 45 1 12 4 12 12 -2 5 -10 17 -18 26 -18z m-161 -6
c1 -9 0 -13 -4 -10 -3 4 -7 14 -8 22 -1 9 0 13 4 10 3 -4 7 -14 8 -22z m-862
0 c3 -8 2 -12 -4 -9 -6 3 -10 10 -10 16 0 14 7 11 14 -7z m906 -9 c0 -8 -4
-15 -10 -15 -5 0 -7 7 -4 15 4 8 8 15 10 15 2 0 4 -7 4 -15z m25 -5 c3 -5 1
-10 -4 -10 -6 0 -11 5 -11 10 0 6 2 10 4 10 3 0 8 -4 11 -10z m-988 -16 c-3
-3 -12 -4 -19 -1 -8 3 -5 6 6 6 11 1 17 -2 13 -5z m40 -10 c0 -17 -25 -26 -33
-12 -5 7 -2 8 6 3 9 -6 12 -4 8 7 -4 8 -1 15 6 15 7 0 13 -6 13 -13z m-57 -8
c0 -3 -4 -8 -10 -11 -5 -3 -10 -1 -10 4 0 6 5 11 10 11 6 0 10 -2 10 -4z m897
-21 c0 -8 -4 -12 -9 -9 -5 3 -6 10 -3 15 9 13 12 11 12 -6z m-877 -5 c0 -5 -6
-10 -12 -10 -7 -1 -2 -7 12 -14 l25 -14 -26 1 c-18 1 -25 7 -24 17 2 8 4 18 4
23 1 11 21 8 21 -3z m924 -15 c11 -8 16 -15 10 -15 -5 0 -18 7 -28 15 -11 8
-16 15 -10 15 5 0 18 -7 28 -15z m-860 -7 c-3 -4 -9 -8 -15 -8 -5 0 -9 4 -9 8
0 5 7 9 15 9 8 0 12 -4 9 -9z m506 -14 c0 -8 -19 -13 -24 -6 -3 5 1 9 9 9 8 0
15 -2 15 -3z m-530 -14 c0 -5 -8 -10 -17 -10 -15 0 -16 2 -3 10 19 12 20 12
20 0z m878 -2 c-2 -6 -10 -13 -16 -14 -7 -1 -8 0 -2 3 5 2 8 9 4 14 -3 5 0 9
6 9 7 0 10 -5 8 -12z m-907 -17 c11 -10 16 -22 11 -25 -5 -3 -17 5 -26 19 -20
30 -13 32 15 6z m73 11 c3 -5 -1 -9 -9 -9 -8 0 -12 4 -9 9 3 4 7 8 9 8 2 0 6
-4 9 -8z m-24 -27 c11 -13 10 -14 -4 -9 -9 3 -16 10 -16 15 0 13 6 11 20 -6z
m820 -9 c0 -2 -7 -7 -16 -10 -8 -3 -12 -2 -9 4 6 10 25 14 25 6z m50 -3 c0 -5
-4 -14 -9 -22 -10 -15 -31 -7 -31 12 0 7 4 6 10 -3 9 -13 14 -7 11 13 0 4 4 7
9 7 6 0 10 -3 10 -7z m70 -21 c0 -5 -7 -9 -15 -9 -8 0 -12 4 -9 9 3 4 9 8 15
8 5 0 9 -4 9 -8z m-110 -16 c0 -2 -7 -6 -15 -10 -8 -3 -15 -1 -15 4 0 6 7 10
15 10 8 0 15 -2 15 -4z m15 -16 c-3 -5 -12 -10 -18 -10 -7 0 -6 4 3 10 19 12
23 12 15 0z m-49 -12 c4 -7 3 -8 -4 -4 -7 4 -12 2 -12 -5 0 -7 -3 -10 -6 -6
-6 5 3 27 11 27 2 0 7 -5 11 -12z m99 -56 c-3 -3 -11 0 -18 7 -9 10 -8 11 6 5
10 -3 15 -9 12 -12z m-500 -22 c3 -5 1 -10 -4 -10 -6 0 -11 5 -11 10 0 6 2 10
4 10 3 0 8 -4 11 -10z m319 -25 c3 -8 1 -15 -4 -15 -6 0 -10 7 -10 15 0 8 2
15 4 15 2 0 6 -7 10 -15z m-299 -4 c3 -5 2 -12 -3 -15 -5 -3 -9 1 -9 9 0 17 3
19 12 6z m405 -15 c0 -2 -8 -10 -17 -17 -16 -13 -17 -12 -4 4 13 16 21 21 21
13z m-366 -17 c3 -3 -4 -5 -14 -6 -11 -1 -20 2 -20 7 0 8 25 8 34 -1z m61 -8
c3 -5 2 -12 -3 -15 -5 -3 -9 1 -9 9 0 17 3 19 12 6z m242 -16 c0 -8 -4 -12 -9
-9 -5 3 -6 10 -3 15 9 13 12 11 12 -6z m-97 -55 c0 -5 -9 -7 -20 -5 -11 2 -18
0 -15 -5 7 -12 35 -6 46 11 12 20 11 2 -1 -22 -8 -15 -15 -17 -29 -10 -12 7
-22 6 -29 -1 -12 -12 -12 8 0 27 8 13 48 17 48 5z m-191 -62 c-5 -10 -15 -18
-21 -18 -7 0 -7 4 1 13 6 8 9 16 6 19 -3 2 2 5 9 5 11 0 13 -5 5 -19z"/>
<path d="M725 1872 c7 -38 26 -64 38 -54 7 5 26 8 42 7 17 0 35 3 42 8 7 5 18
5 25 1 7 -4 24 -8 39 -9 24 -1 26 1 19 21 -5 12 -6 24 -3 27 6 7 -19 3 -32 -5
-12 -7 -56 -5 -70 4 -6 4 -17 3 -25 -3 -21 -13 -32 -11 -24 4 5 9 4 9 -6 0
-11 -10 -17 -9 -32 3 -16 15 -17 15 -13 -4z m39 -32 c4 0 4 5 0 12 -4 7 -3 8
5 4 9 -6 9 -11 0 -22 -14 -17 -12 -17 -28 16 -11 22 -10 23 2 8 8 -10 17 -18
21 -18z m79 17 c4 3 7 1 7 -6 0 -7 -7 -11 -15 -8 -8 4 -17 2 -20 -3 -4 -6 -12
-10 -18 -10 -7 0 -6 4 3 10 13 9 13 10 0 10 -13 0 -13 1 0 10 9 5 19 5 26 0 6
-6 14 -7 17 -3z m76 -10 c0 -8 -2 -8 -6 1 -4 10 -8 9 -17 -3 -11 -15 -13 -15
-27 2 -13 16 -12 17 2 5 14 -10 18 -10 23 3 6 18 26 11 25 -8z"/>
<path d="M976 1852 c-2 -4 -2 -12 2 -17 13 -19 39 -15 58 7 10 13 12 18 4 12
-17 -12 -30 -12 -47 -1 -6 4 -14 4 -17 -1z"/>
<path d="M1810 746 c0 -2 8 -10 18 -17 15 -13 16 -12 3 4 -13 16 -21 21 -21
13z"/>
<path d="M1806 683 c-6 -14 -5 -15 5 -6 7 7 10 15 7 18 -3 3 -9 -2 -12 -12z"/>
<path d="M890 1949 c0 -5 5 -7 10 -4 6 3 10 8 10 11 0 2 -4 4 -10 4 -5 0 -10
-5 -10 -11z"/>
<path d="M1230 1956 c0 -2 7 -7 16 -10 8 -3 12 -2 9 4 -6 10 -25 14 -25 6z"/>
<path d="M1131 1937 c-8 -10 -7 -14 2 -14 8 0 14 6 14 14 0 7 -1 13 -2 13 -2
0 -8 -6 -14 -13z"/>
<path d="M671 1924 c0 -11 3 -14 6 -6 3 7 2 16 -1 19 -3 4 -6 -2 -5 -13z"/>
<path d="M765 1930 c3 -5 11 -10 16 -10 6 0 7 5 4 10 -3 6 -11 10 -16 10 -6 0
-7 -4 -4 -10z"/>
<path d="M845 1930 c-3 -5 -1 -10 4 -10 6 0 11 5 11 10 0 6 -2 10 -4 10 -3 0
-8 -4 -11 -10z"/>
<path d="M990 1928 c0 -4 4 -8 9 -8 6 0 12 4 15 8 3 5 -1 9 -9 9 -8 0 -15 -4
-15 -9z"/>
<path d="M1075 1930 c-2 -3 5 -7 16 -7 10 -1 19 2 19 6 0 9 -29 10 -35 1z"/>
<path d="M1176 1923 c-6 -14 -5 -15 5 -6 7 7 10 15 7 18 -3 3 -9 -2 -12 -12z"/>
<path d="M483 1908 c-11 -19 -13 -39 -1 -32 5 3 7 9 4 12 -3 3 -1 11 5 19 6 7
9 13 6 13 -3 0 -9 -6 -14 -12z"/>
<path d="M523 1912 c-7 -4 -9 -13 -4 -21 6 -9 10 -7 14 8 3 12 4 21 4 21 -1 0
-7 -4 -14 -8z"/>
<path d="M555 1909 c-4 -6 -5 -12 -2 -15 2 -3 7 2 10 11 7 17 1 20 -8 4z"/>
<path d="M587 1902 c4 -10 8 -11 13 -1 6 8 11 6 18 -8 10 -17 8 -20 -18 -20
-21 0 -27 4 -23 16 4 14 3 14 -5 1 -6 -8 -9 -17 -6 -21 6 -10 -25 -33 -34 -24
-4 4 -1 10 6 12 6 3 12 9 12 15 0 7 -5 6 -14 -1 -11 -10 -17 -8 -25 6 -6 10
-11 15 -11 11 0 -4 9 -22 20 -41 19 -31 19 -35 4 -41 -12 -5 -15 -2 -10 9 3
10 2 13 -5 10 -6 -4 -9 0 -7 10 2 10 -4 20 -12 22 -12 4 -12 3 -1 -5 9 -7 10
-12 2 -16 -6 -4 -14 0 -17 8 -6 17 -24 22 -24 8 0 -5 11 -15 25 -22 14 -7 25
-17 25 -22 0 -13 -28 -9 -34 5 -3 6 -4 3 -1 -9 5 -21 0 -23 -48 -25 -9 0 -15
-4 -12 -10 4 -5 2 -9 -4 -9 -29 0 -16 32 14 36 6 0 16 2 23 2 6 1 12 10 12 19
0 15 -2 15 -14 -2 -12 -17 -16 -17 -30 -5 -15 11 -17 11 -14 -1 2 -9 -4 -13
-17 -11 -16 2 -17 1 -5 -7 8 -6 12 -11 7 -11 -4 0 -1 -11 8 -24 14 -21 14 -24
-1 -37 -13 -11 -15 -11 -14 2 4 26 0 40 -10 34 -5 -3 -10 -1 -10 6 0 7 -3 9
-7 5 -5 -4 0 -13 9 -20 16 -12 16 -15 2 -32 -13 -15 -15 -16 -10 -2 3 11 -5
22 -22 33 -27 16 -27 16 -5 -3 22 -20 16 -51 -7 -37 -9 6 -11 4 -5 -5 6 -9 1
-10 -16 -5 -19 5 -21 4 -9 -4 13 -9 12 -11 -5 -12 -11 0 -15 -3 -8 -5 7 -3 21
0 32 5 13 7 22 8 26 1 3 -5 2 -10 -2 -10 -5 0 -18 -7 -29 -16 -10 -8 -14 -13
-8 -10 7 3 18 -1 25 -10 11 -13 11 -15 -2 -14 -35 5 -39 1 -40 -57 -1 -12 -4
-22 -8 -21 -18 2 -28 -4 -28 -17 0 -8 4 -12 8 -10 4 3 9 -1 12 -9 4 -9 0 -12
-12 -9 -10 2 -24 -3 -32 -13 -13 -16 -12 -16 8 -6 23 12 57 6 48 -9 -3 -4 -11
-6 -18 -4 -7 3 -19 0 -27 -5 -13 -8 -12 -12 8 -25 32 -23 27 -39 -6 -18 -15 9
-24 13 -20 8 4 -4 2 -15 -4 -24 -10 -13 -10 -14 2 -4 19 17 56 -3 40 -22 -8
-9 -8 -15 0 -20 5 -3 10 -11 10 -18 0 -8 -3 -8 -12 1 -7 7 -17 12 -23 12 -5 0
-3 -5 6 -10 10 -6 15 -20 13 -35 -3 -34 42 -87 56 -65 6 8 10 13 11 10 0 -3 2
-13 4 -23 2 -13 -1 -17 -11 -13 -8 3 -12 2 -9 -3 3 -5 -3 -12 -12 -14 -10 -3
-3 -4 16 -2 40 2 60 29 34 44 -14 8 -15 10 -3 11 13 0 13 2 1 9 -12 8 -12 12
-2 25 8 9 9 16 3 16 -6 0 -12 -3 -15 -7 -2 -5 -2 -2 -1 4 2 7 -1 12 -5 10 -5
-1 -9 1 -10 6 -3 25 2 25 28 -2 27 -27 31 -28 43 -14 11 14 11 16 -4 11 -17
-7 -33 15 -29 40 1 6 -3 12 -9 12 -6 0 -9 -4 -6 -9 3 -5 -6 -8 -19 -8 -28 0
-32 9 -10 27 11 9 12 16 4 26 -6 7 -7 19 -3 25 5 8 3 9 -6 4 -9 -6 -11 -4 -5
5 6 9 4 11 -6 5 -11 -7 -12 -6 -3 6 6 8 9 23 7 34 -2 11 -5 26 -5 33 -1 6 -5
12 -10 12 -4 0 -8 5 -8 12 0 6 3 8 7 5 3 -4 16 0 29 8 19 12 23 12 27 0 5 -12
-20 -44 -30 -37 -14 10 -13 -1 3 -14 10 -8 14 -13 7 -10 -16 8 -10 -24 6 -34
7 -4 9 -10 5 -12 -5 -3 -2 -3 6 -1 10 2 9 -2 -4 -12 -11 -8 -16 -18 -13 -22 4
-4 15 1 24 10 16 15 16 18 0 35 -19 21 -15 56 9 83 16 18 16 20 0 38 -14 16
-15 20 -2 30 8 7 12 20 9 28 -5 12 -3 14 7 8 8 -5 11 -4 6 3 -4 7 1 10 14 7
18 -3 19 0 15 28 -6 30 -5 31 9 12 14 -19 15 -19 42 10 16 17 27 35 26 40 -1
6 4 2 12 -8 13 -17 16 -15 46 23 17 22 37 37 42 34 6 -4 8 -2 5 3 -4 6 0 13 8
17 8 3 17 1 21 -5 4 -6 13 -4 24 6 14 13 19 13 23 3 3 -10 8 -8 19 6 13 17 15
17 31 1 9 -9 17 -13 17 -8 0 5 -5 14 -11 20 -7 7 -7 13 0 17 14 9 2 36 -16 36
-8 0 -12 4 -9 9 7 11 -21 24 -55 26 -19 1 -25 -3 -22 -13z m65 -16 c7 -14 16
-25 21 -25 11 -1 8 -16 -3 -16 -6 0 -15 -7 -20 -15 -5 -8 -12 -11 -16 -7 -4 4
-15 0 -25 -9 -11 -10 -19 -12 -24 -5 -4 8 -12 8 -25 1 -23 -12 -22 9 2 34 12
12 18 13 21 3 3 -7 6 -4 6 7 1 12 6 16 17 12 24 -9 35 3 24 25 -7 12 -7 19 -1
19 6 0 16 -11 23 -24z m-122 -93 c0 -14 -36 -40 -49 -35 -14 5 -14 4 -1 -14
14 -19 14 -19 -8 0 -19 17 -23 15 -22 -9 0 -3 -12 -16 -27 -29 -20 -17 -30
-21 -35 -13 -4 7 -1 17 8 24 9 6 13 16 10 22 -4 5 3 15 14 21 11 6 20 7 20 3
0 -4 5 -1 10 7 9 13 10 13 10 0 1 -12 3 -12 11 2 6 11 16 15 26 11 10 -4 14
-2 10 4 -3 5 0 10 8 10 8 0 15 -2 15 -4z m-166 -105 c-1 -13 -3 -27 -3 -31 -1
-5 -5 -6 -10 -2 -5 3 -12 1 -16 -5 -8 -13 -25 -13 -25 1 0 5 5 7 10 4 10 -6
14 7 10 35 -1 11 3 9 15 -5 9 -11 14 -14 10 -7 -3 6 -3 17 0 22 9 15 12 12 9
-12z m-57 -91 c-2 -7 3 -21 12 -31 13 -16 13 -18 1 -10 -8 4 -23 7 -32 6 -10
-2 -18 2 -18 8 0 7 7 9 18 5 13 -5 14 -3 5 6 -13 13 -6 42 9 33 5 -3 7 -11 5
-17z m-47 -151 c-6 -6 -2 -19 10 -36 19 -26 19 -28 1 -44 -18 -17 -36 -11 -24
8 14 21 13 44 -2 56 -21 17 -19 29 5 27 12 -1 16 -5 10 -11z m15 -124 c1 -4 9
-22 19 -41 10 -18 13 -30 8 -27 -6 4 -14 1 -17 -5 -5 -6 -13 -2 -23 13 -21 29
-24 49 -10 65 10 13 22 10 23 -5z"/>
<path d="M627 1852 c-14 -13 -17 -14 -17 -2 0 13 -2 13 -9 1 -5 -8 -17 -16
-26 -17 -9 -1 -20 -6 -23 -10 -4 -4 1 -4 10 -1 10 3 20 2 24 -4 4 -7 12 -5 23
5 10 9 20 14 23 11 3 -3 11 1 17 9 17 21 -3 28 -22 8z"/>
<path d="M417 1737 c3 -6 -3 -17 -13 -25 -10 -8 -13 -12 -5 -10 8 2 20 13 28
24 11 18 11 21 -1 21 -9 0 -12 -5 -9 -10z"/>
<path d="M263 1393 c4 -3 1 -13 -6 -22 -11 -14 -10 -14 5 -2 16 12 16 31 1 31
-4 0 -3 -3 0 -7z"/>
<path d="M260 1303 c5 -2 8 -8 6 -12 -7 -11 12 -36 21 -28 4 5 2 12 -6 16 -7
5 -12 12 -11 17 1 5 -3 9 -9 10 -7 2 -8 1 -1 -3z"/>
<path d="M1136 1895 c-3 -8 -1 -15 4 -15 6 0 10 7 10 15 0 8 -2 15 -4 15 -2 0
-6 -7 -10 -15z"/>
<path d="M415 1890 c-3 -5 -1 -10 4 -10 6 0 11 5 11 10 0 6 -2 10 -4 10 -3 0
-8 -4 -11 -10z"/>
<path d="M373 1865 c0 -8 4 -12 9 -9 5 3 6 10 3 15 -9 13 -12 11 -12 -6z"/>
<path d="M1230 1859 c13 -23 22 -25 13 -2 -5 12 -3 14 8 8 8 -5 11 -4 6 0 -4
5 -14 10 -22 11 -12 2 -12 -2 -5 -17z"/>
<path d="M410 1852 c0 -5 7 -9 15 -9 8 0 12 4 9 9 -3 4 -9 8 -15 8 -5 0 -9 -4
-9 -8z"/>
<path d="M1210 1851 c0 -8 -7 -11 -19 -8 -14 3 -18 1 -14 -9 3 -9 10 -11 21
-5 10 6 20 4 30 -5 11 -11 17 -12 28 -3 8 6 14 16 14 22 0 6 -6 3 -13 -8 -13
-17 -15 -17 -30 6 -10 13 -17 17 -17 10z"/>
<path d="M335 1830 c-3 -5 -1 -10 4 -10 6 0 11 5 11 10 0 6 -2 10 -4 10 -3 0
-8 -4 -11 -10z"/>
<path d="M1276 1823 c-6 -14 -5 -15 5 -6 7 7 10 15 7 18 -3 3 -9 -2 -12 -12z"/>
<path d="M1300 1807 c0 -4 11 -6 25 -4 36 4 39 13 5 12 -17 0 -30 -3 -30 -8z"/>
<path d="M290 1730 c0 -5 5 -10 11 -10 5 0 7 5 4 10 -3 6 -8 10 -11 10 -2 0
-4 -4 -4 -10z"/>
<path d="M225 1670 c-3 -6 1 -7 9 -4 18 7 21 14 7 14 -6 0 -13 -4 -16 -10z"/>
<path d="M390 1655 c9 -10 9 -15 1 -16 -26 -3 -30 -4 -36 -11 -4 -4 -4 -12 0
-18 5 -8 15 -4 31 11 28 27 30 35 8 43 -14 5 -15 4 -4 -9z"/>
<path d="M256 1645 c4 -8 8 -15 10 -15 2 0 4 7 4 15 0 8 -4 15 -10 15 -5 0 -7
-7 -4 -15z"/>
<path d="M239 1638 c-7 -23 -5 -37 4 -31 7 4 8 0 4 -11 -4 -10 -3 -15 3 -11
13 8 13 35 -1 35 -5 0 -7 5 -4 10 3 6 4 10 1 10 -3 0 -6 -1 -7 -2z"/>
<path d="M221 1573 c-1 -17 -6 -21 -18 -17 -15 5 -16 4 -3 -5 19 -13 33 1 27
25 -4 16 -5 15 -6 -3z"/>
<path d="M290 1529 c0 -5 5 -7 10 -4 6 3 10 8 10 11 0 2 -4 4 -10 4 -5 0 -10
-5 -10 -11z"/>
<path d="M206 1513 c-6 -14 -5 -15 5 -6 7 7 10 15 7 18 -3 3 -9 -2 -12 -12z"/>
<path d="M135 1509 c-3 -4 2 -6 10 -5 21 3 28 13 10 13 -9 0 -18 -4 -20 -8z"/>
<path d="M181 1494 c0 -11 3 -14 6 -6 3 7 2 16 -1 19 -3 4 -6 -2 -5 -13z"/>
<path d="M160 1481 c0 -6 4 -13 10 -16 6 -3 7 1 4 9 -7 18 -14 21 -14 7z"/>
<path d="M135 1470 c3 -5 8 -10 11 -10 2 0 4 5 4 10 0 6 -5 10 -11 10 -5 0 -7
-4 -4 -10z"/>
<path d="M135 1430 c-2 -3 9 -6 25 -6 17 0 27 2 25 5 -8 7 -45 9 -50 1z"/>
<path d="M1593 1405 c0 -8 4 -12 9 -9 5 3 6 10 3 15 -9 13 -12 11 -12 -6z"/>
<path d="M155 1400 c-3 -6 1 -7 9 -4 18 7 21 14 7 14 -6 0 -13 -4 -16 -10z"/>
<path d="M210 1379 c0 -5 -5 -7 -12 -3 -7 4 -8 3 -4 -4 10 -16 23 -15 30 3 3
8 1 15 -4 15 -6 0 -10 -5 -10 -11z"/>
<path d="M1502 1365 c-7 -8 -10 -15 -6 -15 3 0 0 -7 -7 -16 -19 -23 -20 -42
-2 -48 10 -4 12 -13 8 -27 -6 -17 -4 -21 7 -17 8 3 22 0 33 -8 28 -20 41 -17
21 5 -17 19 -17 20 2 30 12 6 27 8 35 5 8 -3 17 2 21 13 6 14 4 15 -5 6 -9 -9
-15 -8 -27 3 -8 8 -21 13 -29 10 -11 -4 -13 -1 -8 14 9 29 -3 44 -22 28 -14
-11 -15 -10 -9 10 8 26 6 27 -12 7z m36 -32 c-2 -12 -13 -18 -30 -18 -21 -1
-25 2 -16 12 8 10 14 11 25 1 8 -6 13 -7 12 -2 -2 14 0 24 7 24 3 0 4 -8 2
-17z m2 -47 c0 -6 4 -4 10 4 5 8 12 11 16 7 4 -4 -2 -14 -14 -23 -12 -8 -19
-20 -16 -26 5 -7 2 -8 -5 -4 -7 5 -10 11 -7 14 3 3 -3 12 -14 19 -11 8 -18 18
-15 23 7 11 45 0 45 -14z"/>
<path d="M1500 1296 c0 -3 9 -10 20 -16 11 -6 20 -8 20 -6 0 3 -9 10 -20 16
-11 6 -20 8 -20 6z"/>
<path d="M1560 1370 c-9 -6 -10 -10 -3 -10 6 0 15 5 18 10 8 12 4 12 -15 0z"/>
<path d="M1610 1350 c0 -5 5 -10 11 -10 5 0 7 5 4 10 -3 6 -8 10 -11 10 -2 0
-4 -4 -4 -10z"/>
<path d="M1573 1335 c0 -7 6 -11 14 -8 7 3 13 6 13 8 0 2 -6 5 -13 8 -8 3 -14
-1 -14 -8z"/>
<path d="M150 1328 c0 -3 9 -6 20 -5 11 1 20 5 20 9 0 3 -9 6 -20 5 -11 -1
-20 -5 -20 -9z"/>
<path d="M193 1295 c0 -7 6 -11 14 -8 7 3 13 6 13 8 0 2 -6 5 -13 8 -8 3 -14
-1 -14 -8z"/>
<path d="M1633 1295 c0 -8 3 -13 5 -10 3 3 12 -1 21 -7 10 -8 9 -4 -3 10 -23
26 -23 26 -23 7z"/>
<path d="M1695 1271 c-3 -5 -2 -12 3 -15 5 -3 9 1 9 9 0 17 -3 19 -12 6z"/>
<path d="M1620 1266 c0 -2 7 -7 16 -10 8 -3 12 -2 9 4 -6 10 -25 14 -25 6z"/>
<path d="M226 1246 c10 -8 21 -12 24 -10 5 6 -21 24 -34 24 -6 0 -1 -6 10 -14z"/>
<path d="M1671 1243 c7 -12 15 -20 18 -17 3 2 -3 12 -13 22 -17 16 -18 16 -5
-5z"/>
<path d="M357 1243 c-11 -10 -8 -25 3 -18 5 3 16 -8 25 -24 9 -19 11 -32 5
-36 -6 -4 -8 -11 -4 -16 3 -5 9 -7 14 -4 5 3 16 -2 24 -11 9 -9 16 -11 16 -4
0 7 8 9 21 5 18 -6 19 -5 7 14 -7 12 -16 21 -20 21 -3 0 -24 18 -46 40 -21 22
-42 37 -45 33z m60 -76 c0 -8 -6 -14 -14 -14 -9 0 -10 4 -2 14 6 7 12 13 14
13 1 0 2 -6 2 -13z m28 -6 c3 -5 2 -12 -3 -15 -5 -3 -9 1 -9 9 0 17 3 19 12 6z"/>
<path d="M176 1232 c-3 -5 1 -9 9 -9 8 0 12 4 9 9 -3 4 -7 8 -9 8 -2 0 -6 -4
-9 -8z"/>
<path d="M210 1230 c0 -5 5 -10 11 -10 5 0 7 5 4 10 -3 6 -8 10 -11 10 -2 0
-4 -4 -4 -10z"/>
<path d="M1643 1233 c-16 -6 -17 -33 -2 -33 5 0 8 4 4 9 -3 5 -1 12 5 16 5 3
10 -1 10 -9 0 -9 5 -16 10 -16 7 0 7 6 0 20 -6 11 -12 20 -13 19 -1 0 -8 -3
-14 -6z"/>
<path d="M1530 1210 c0 -5 5 -10 10 -10 6 0 10 5 10 10 0 6 -4 10 -10 10 -5 0
-10 -4 -10 -10z"/>
<path d="M1750 1166 c7 -7 13 -7 20 0 6 6 3 10 -10 10 -13 0 -16 -4 -10 -10z"/>
<path d="M1800 1176 c0 -2 8 -10 18 -17 15 -13 16 -12 3 4 -13 16 -21 21 -21
13z"/>
<path d="M240 1150 c-9 -6 -10 -10 -3 -10 6 0 15 5 18 10 8 12 4 12 -15 0z"/>
<path d="M270 1150 c0 -5 5 -10 10 -10 6 0 10 5 10 10 0 6 -4 10 -10 10 -5 0
-10 -4 -10 -10z"/>
<path d="M1590 1149 c0 -5 5 -7 10 -4 6 3 10 8 10 11 0 2 -4 4 -10 4 -5 0 -10
-5 -10 -11z"/>
<path d="M1622 1148 c3 -7 9 -13 14 -13 5 0 14 -4 21 -8 7 -4 10 -1 9 10 -2 9
-13 18 -25 20 -15 2 -21 -1 -19 -9z"/>
<path d="M1738 1148 c6 -6 18 -8 28 -6 14 3 12 5 -9 10 -19 3 -25 2 -19 -4z"/>
<path d="M295 1130 c-3 -6 1 -7 9 -4 18 7 21 14 7 14 -6 0 -13 -4 -16 -10z"/>
<path d="M1710 1130 c0 -5 5 -10 10 -10 6 0 10 5 10 10 0 6 -4 10 -10 10 -5 0
-10 -4 -10 -10z"/>
<path d="M1800 1130 c-12 -7 -10 -9 7 -7 12 0 19 5 17 9 -6 10 -6 10 -24 -2z"/>
<path d="M314 1105 c3 -23 12 -26 13 -5 1 11 -2 20 -7 20 -4 0 -7 -7 -6 -15z"/>
<path d="M470 1091 c0 -5 7 -14 15 -21 8 -7 12 -16 9 -21 -3 -5 0 -9 6 -9 6 0
9 -4 6 -8 -7 -12 12 -38 21 -29 4 5 3 11 -2 15 -10 7 -16 25 -19 52 -2 23 -36
43 -36 21z"/>
<path d="M1673 1088 c3 -9 1 -20 -4 -25 -6 -6 -5 -14 5 -22 12 -10 15 -9 14 6
0 10 1 24 3 32 2 7 -2 16 -10 19 -10 3 -12 0 -8 -10z"/>
<path d="M1815 1090 c3 -5 8 -10 11 -10 2 0 4 5 4 10 0 6 -5 10 -11 10 -5 0
-7 -4 -4 -10z"/>
<path d="M335 1070 c-3 -5 -1 -10 4 -10 6 0 11 5 11 10 0 6 -2 10 -4 10 -3 0
-8 -4 -11 -10z"/>
<path d="M364 1058 c3 -15 26 -23 26 -8 0 6 -4 9 -9 6 -5 -4 -12 -1 -14 4 -3
6 -4 5 -3 -2z"/>
<path d="M300 1056 c0 -2 8 -10 18 -17 15 -13 16 -12 3 4 -13 16 -21 21 -21
13z"/>
<path d="M1859 1043 c-13 -16 -12 -17 4 -4 16 13 21 21 13 21 -2 0 -10 -8 -17
-17z"/>
<path d="M420 1020 c-13 -9 -13 -10 0 -11 8 -1 20 -3 25 -4 6 -2 19 -3 30 -4
17 -1 18 -3 5 -11 -13 -8 -12 -10 3 -10 9 0 17 -4 17 -10 0 -15 -16 -12 -34 6
-9 8 -16 12 -16 8 0 -5 12 -18 28 -31 20 -16 23 -22 11 -23 -9 0 -19 -7 -23
-15 -5 -13 -2 -13 19 1 15 10 22 21 18 31 -4 10 -2 14 4 10 6 -4 16 0 23 8 9
11 3 18 -39 39 -58 30 -52 28 -71 16z m110 -45 c0 -12 -19 -12 -23 0 -4 9 -1
12 9 8 7 -3 14 -7 14 -8z"/>
<path d="M1851 1004 c0 -11 3 -14 6 -6 3 7 2 16 -1 19 -3 4 -6 -2 -5 -13z"/>
<path d="M380 996 c0 -2 8 -10 18 -17 15 -13 16 -12 3 4 -13 16 -21 21 -21 13z"/>
<path d="M421 980 c7 -14 12 -28 11 -32 -1 -5 3 -8 8 -8 15 0 12 12 -11 40
l-20 25 12 -25z"/>
<path d="M1831 964 c0 -11 3 -14 6 -6 3 7 2 16 -1 19 -3 4 -6 -2 -5 -13z"/>
<path d="M395 950 c3 -5 8 -10 11 -10 2 0 4 5 4 10 0 6 -5 10 -11 10 -5 0 -7
-4 -4 -10z"/>
<path d="M1870 950 c0 -5 5 -10 11 -10 5 0 7 5 4 10 -3 6 -8 10 -11 10 -2 0
-4 -4 -4 -10z"/>
<path d="M1765 915 c-18 -14 -18 -16 -3 -32 15 -15 16 -15 14 3 -2 10 1 25 7
32 13 16 7 15 -18 -3z"/>
<path d="M1867 917 c-6 -15 28 -17 40 -1 5 5 4 6 -1 2 -5 -4 -15 -3 -21 2 -9
7 -14 6 -18 -3z"/>
<path d="M1720 900 c0 -5 5 -10 11 -10 5 0 7 5 4 10 -3 6 -8 10 -11 10 -2 0
-4 -4 -4 -10z"/>
<path d="M1783 822 c-6 -4 -11 -16 -10 -27 1 -11 -3 -19 -10 -17 -18 3 -16 -6
7 -35 11 -14 20 -21 20 -16 0 5 -5 14 -12 21 -8 8 -8 12 -1 12 5 0 9 10 9 23
-1 12 2 28 7 35 11 14 7 15 -10 4z"/>
<path d="M1873 818 c-11 -19 -13 -39 -1 -32 5 3 7 9 4 12 -3 3 -1 11 5 19 6 7
9 13 6 13 -3 0 -9 -6 -14 -12z"/>
<path d="M1925 810 c-3 -6 1 -7 9 -4 18 7 21 14 7 14 -6 0 -13 -4 -16 -10z"/>
<path d="M1880 775 c0 -2 6 -8 13 -14 10 -8 14 -7 14 2 0 8 -6 14 -14 14 -7 0
-13 -1 -13 -2z"/>
<path d="M1763 682 c-6 -4 -13 -14 -15 -22 -2 -8 -9 -20 -17 -26 -8 -6 -11
-18 -8 -28 11 -28 32 -12 32 25 1 19 6 33 11 32 6 -1 11 5 11 13 0 8 -1 14 -1
14 -1 0 -6 -4 -13 -8z m-20 -67 c-3 -9 -8 -14 -10 -11 -3 3 -2 9 2 15 9 16 15
13 8 -4z"/>
<path d="M1865 650 c0 -15 3 -26 8 -23 4 2 7 13 7 23 0 10 -3 21 -7 23 -5 3
-8 -8 -8 -23z"/>
<path d="M1831 605 c0 -5 3 -16 8 -23 7 -11 9 -10 14 3 4 9 3 14 -2 10 -5 -3
-12 1 -14 7 -3 7 -6 9 -6 3z"/>
<path d="M1806 527 c3 -10 9 -15 12 -12 3 3 0 11 -7 18 -10 9 -11 8 -5 -6z"/>
<path d="M1701 526 c4 -4 -11 -25 -33 -46 -21 -22 -33 -40 -26 -40 7 0 1 -8
-12 -17 -14 -10 -28 -17 -32 -16 -4 2 -12 -6 -17 -16 -8 -15 -7 -18 9 -17 21
1 74 53 76 74 2 28 4 33 13 28 5 -3 16 5 25 19 12 18 13 26 3 31 -6 4 -9 4 -6
0z m-81 -131 c-7 -8 -17 -15 -23 -15 -6 0 -2 7 9 15 25 19 30 19 14 0z"/>
<path d="M1876 512 c-3 -5 1 -9 9 -9 8 0 12 4 9 9 -3 4 -7 8 -9 8 -2 0 -6 -4
-9 -8z"/>
<path d="M1730 490 c0 -5 5 -10 10 -10 6 0 10 5 10 10 0 6 -4 10 -10 10 -5 0
-10 -4 -10 -10z"/>
<path d="M1760 490 c0 -5 5 -10 11 -10 5 0 7 -5 3 -12 -4 -7 -3 -8 4 -4 6 4 9
13 5 21 -6 17 -23 20 -23 5z"/>
<path d="M1790 449 c0 -5 5 -7 10 -4 6 3 10 8 10 11 0 2 -4 4 -10 4 -5 0 -10
-5 -10 -11z"/>
<path d="M1752 441 c-11 -6 -9 -9 6 -13 15 -4 19 -2 15 8 -6 16 -4 16 -21 5z"/>
<path d="M1787 389 c7 -7 15 -10 18 -7 3 3 -2 9 -12 12 -14 6 -15 5 -6 -5z"/>
<path d="M851 374 c0 -11 3 -14 6 -6 3 7 2 16 -1 19 -3 4 -6 -2 -5 -13z"/>
<path d="M820 370 c-9 -6 -10 -10 -3 -10 6 0 15 5 18 10 8 12 4 12 -15 0z"/>
<path d="M1754 366 c1 -8 5 -18 8 -22 4 -3 5 1 4 10 -1 8 -5 18 -8 22 -4 3 -5
-1 -4 -10z"/>
<path d="M1674 332 c3 -5 0 -13 -6 -15 -9 -4 -10 -6 -1 -6 17 -1 25 16 12 25
-7 4 -9 3 -5 -4z"/>
<path d="M1386 315 c4 -8 10 -12 15 -9 11 6 2 24 -11 24 -5 0 -7 -7 -4 -15z"/>
<path d="M1255 282 c-3 -8 -12 -12 -20 -8 -8 3 -14 2 -14 -2 3 -21 -3 -33 -24
-44 -22 -13 -23 -14 -5 -30 10 -10 18 -14 18 -10 0 4 -5 13 -12 20 -9 9 -9 12
0 12 6 0 16 -8 21 -17 10 -17 10 -17 11 0 0 9 -5 17 -11 17 -5 0 -7 5 -3 12 5
7 11 5 21 -7 7 -11 14 -14 14 -7 4 36 17 55 35 48 8 -3 13 0 11 6 -1 7 3 12
10 13 30 1 19 11 -12 11 -20 -1 -37 -7 -40 -14z m2 -20 c-10 -10 -14 -23 -10
-28 4 -5 1 -3 -7 3 -12 11 -11 15 6 28 26 20 30 19 11 -3z"/>
<path d="M1422 210 c0 -14 2 -19 5 -12 2 6 2 18 0 25 -3 6 -5 1 -5 -13z"/>
<path d="M1515 220 c-4 -6 -10 -8 -14 -6 -4 3 -13 0 -21 -5 -11 -7 -10 -8 8
-6 20 3 56 27 40 27 -4 0 -10 -5 -13 -10z"/>
<path d="M1071 217 c2 -1 12 -9 22 -16 15 -12 17 -12 11 3 -3 9 -13 16 -22 16
-8 0 -13 -1 -11 -3z"/>
<path d="M1446 207 c3 -10 9 -15 12 -12 3 3 0 11 -7 18 -10 9 -11 8 -5 -6z"/>
<path d="M1570 209 c0 -5 5 -7 10 -4 6 3 10 8 10 11 0 2 -4 4 -10 4 -5 0 -10
-5 -10 -11z"/>
<path d="M1160 196 c0 -2 7 -7 16 -10 8 -3 12 -2 9 4 -6 10 -25 14 -25 6z"/>
<path d="M1396 191 c-3 -5 1 -14 8 -20 10 -9 16 -9 21 -1 4 6 1 9 -7 8 -7 -2
-12 3 -10 10 2 14 -4 16 -12 3z"/>
<path d="M1340 176 c7 -7 13 -7 20 0 6 6 3 10 -10 10 -13 0 -16 -4 -10 -10z"/>
<path d="M1266 169 c2 -4 13 -7 24 -6 23 2 17 10 -10 12 -10 1 -17 -2 -14 -6z"/>
<path d="M1135 161 c-3 -5 -2 -12 3 -15 5 -3 9 1 9 9 0 17 -3 19 -12 6z"/>
<path d="M1195 161 c-3 -5 -2 -12 3 -15 5 -3 9 1 9 9 0 17 -3 19 -12 6z"/>
<path d="M1090 156 c0 -2 7 -7 16 -10 8 -3 12 -2 9 4 -6 10 -25 14 -25 6z"/>
<path d="M1435 150 c3 -5 8 -10 11 -10 2 0 4 5 4 10 0 6 -5 10 -11 10 -5 0 -7
-4 -4 -10z"/>
</g>
</svg>
