<svg width="177" height="40" viewBox="0 0 177 40" fill="none" xmlns="http://www.w3.org/2000/svg">
<path d="M0.0526929 27.7942C-0.0935795 28.1787 0.106139 28.2631 0.153021 28.3259C0.593714 28.6466 1.04191 28.8772 1.49198 29.1341C3.88766 30.4028 6.138 30.7731 8.50086 30.7731C13.31 30.7731 16.2946 28.2152 16.2946 24.0981V24.0184C16.2946 20.2115 12.9256 18.8285 9.76387 17.8299L9.35318 17.6958C6.96875 16.9213 4.91156 16.2537 4.91156 14.6841V14.6007C4.91156 13.258 6.11362 12.2697 7.97672 12.2697C10.047 12.2697 12.5046 12.9579 14.0873 13.8327C14.0873 13.8327 14.5562 14.1328 14.7221 13.6827C14.8159 13.4417 15.6176 11.2852 15.701 11.0507C15.7948 10.7976 15.6307 10.61 15.4666 10.5097C13.6607 9.41174 11.1628 8.65975 8.57869 8.65975H8.09767C3.69638 8.65975 0.624656 11.318 0.624656 15.1295V15.2101C0.624656 19.227 4.0133 20.5294 7.18816 21.437L7.69918 21.5945C10.0133 22.3053 12.0067 22.9166 12.0067 24.5462V24.6259C12.0067 26.1159 10.7118 27.2242 8.62088 27.2242C6.42759 27.2401 4.27648 26.6214 2.42681 25.4426C2.08926 25.2457 1.89235 25.1023 1.63168 24.9447C1.49573 24.8585 1.15161 24.7075 1.00065 25.1623L0.0526929 27.7952V27.7942ZM70.4463 27.7942C70.2991 28.1787 70.4997 28.2631 70.5466 28.3259C70.9873 28.6466 71.4346 28.8772 71.8856 29.1341C74.2756 30.4028 76.5335 30.7731 78.8944 30.7731C83.7027 30.7731 86.6881 28.2152 86.6881 24.0981V24.0184C86.6881 20.2115 83.3192 18.8285 80.1565 17.8299L79.7458 17.6958C77.3614 16.9213 75.3042 16.2537 75.3042 14.6841V14.6007C75.3042 13.258 76.5063 12.2697 78.3694 12.2697C80.4397 12.2697 82.8982 12.9579 84.4809 13.8327C84.4809 13.8327 84.9498 14.1328 85.1148 13.6827C85.2085 13.4417 86.0102 11.2852 86.0937 11.0507C86.1874 10.7976 86.0234 10.61 85.8593 10.5097C84.0534 9.41174 81.5555 8.65975 78.9713 8.65975H78.4903C74.089 8.65975 71.0173 11.318 71.0173 15.1295V15.2101C71.0173 19.227 74.406 20.5294 77.5808 21.437L78.0918 21.5945C80.4059 22.3053 82.405 22.9166 82.405 24.5462V24.6259C82.405 26.1159 81.1054 27.2242 79.0154 27.2242C76.8221 27.2401 74.671 26.6214 72.8213 25.4426C72.4838 25.2457 72.2841 25.1088 72.03 24.9447C71.9428 24.8885 71.5358 24.731 71.3952 25.1623L70.4472 27.7942H70.4463ZM118.501 19.7305C118.501 22.0587 118.067 23.8918 117.213 25.1867C116.359 26.4815 115.092 27.091 113.311 27.091C111.529 27.091 110.252 26.4703 109.42 25.1838C108.589 23.8974 108.152 22.0559 108.152 19.7277C108.152 17.3995 108.579 15.5739 109.42 14.2894C110.261 13.0048 111.52 12.4075 113.311 12.4075C115.102 12.4075 116.373 13.0245 117.221 14.2941C118.068 15.5636 118.506 17.4061 118.506 19.7324L118.501 19.7305ZM122.52 15.4192C122.157 14.1441 121.535 12.9574 120.694 11.9331C119.853 10.9332 118.8 10.1326 117.612 9.58896C116.386 9.01793 114.937 8.7282 113.311 8.7282C111.685 8.7282 110.232 9.01793 109.007 9.58896C107.818 10.1338 106.765 10.9342 105.921 11.9331C105.083 12.96 104.462 14.1459 104.095 15.4192C103.311 18.2413 103.311 21.2235 104.095 24.0455C104.46 25.3204 105.083 26.5068 105.925 27.5317C106.763 28.53 107.817 29.3248 109.007 29.8561C110.235 30.414 111.681 30.7 113.312 30.7C114.942 30.7 116.383 30.4187 117.612 29.8561C118.802 29.3245 119.855 28.5297 120.694 27.5317C121.536 26.5075 122.157 25.3208 122.52 24.0455C123.309 21.2242 123.309 18.2406 122.52 15.4192ZM155.48 26.475C155.347 26.084 154.969 26.2312 154.969 26.2312C154.368 26.4749 153.742 26.6541 153.102 26.7657C152.374 26.8734 151.638 26.9258 150.902 26.9222C148.959 26.9222 147.417 26.3446 146.307 25.2026C145.198 24.0605 144.577 22.2143 144.584 19.7164C144.59 17.4427 145.138 15.7324 146.123 14.4309C147.109 13.1295 148.59 12.4638 150.577 12.4638C152.233 12.4638 153.495 12.6513 154.817 13.0714C154.817 13.0714 155.135 13.2083 155.286 12.7901C155.637 11.8149 155.897 11.1164 156.271 10.0447C156.378 9.74086 156.118 9.61052 156.024 9.57583C155.503 9.37236 154.274 9.04231 153.346 8.90167C152.348 8.75815 151.341 8.69013 150.334 8.6982C148.646 8.6982 147.146 8.98512 145.859 9.55989C144.624 10.097 143.521 10.8969 142.627 11.904C141.747 12.9219 141.082 14.1079 140.674 15.3902C140.228 16.7867 140.007 18.245 140.018 19.7108C140.018 23.0404 140.916 25.7314 142.689 27.7014C144.462 29.6714 147.133 30.6831 150.613 30.6831C152.67 30.6831 154.78 30.2659 156.296 29.6686C156.379 29.6254 156.443 29.5517 156.474 29.4628C156.504 29.3739 156.499 29.2767 156.46 29.1913L155.475 26.4722L155.48 26.475ZM162.503 17.5045C162.691 16.2115 163.051 15.1361 163.601 14.2987C164.433 13.0264 165.701 12.3297 167.485 12.3297C169.268 12.3297 170.447 13.0301 171.292 14.2987C171.854 15.1361 172.096 16.2584 172.194 17.5045H162.503ZM176.017 14.6625C175.676 13.377 174.831 12.0775 174.277 11.483C173.402 10.5454 172.547 9.889 171.7 9.51394C170.468 8.99169 169.143 8.72348 167.806 8.72539C166.109 8.72539 164.57 9.00668 163.321 9.59739C162.113 10.1508 161.045 10.9663 160.192 11.9846C159.344 13.022 158.718 14.2222 158.352 15.5111C157.945 16.9207 157.744 18.3816 157.755 19.8487C157.741 21.3174 157.949 22.7799 158.373 24.1862C158.762 25.47 159.435 26.6499 160.342 27.6386C161.233 28.6109 162.382 29.3723 163.758 29.9021C165.133 30.4318 166.784 30.7038 168.69 30.7009C172.613 30.6869 174.68 29.8121 175.535 29.3414C175.685 29.2579 175.828 29.1116 175.648 28.6906L174.76 26.2031C174.626 25.828 174.249 25.9687 174.249 25.9687C173.277 26.3296 171.895 26.9776 168.672 26.971C166.565 26.971 165.002 26.3465 164.024 25.377C163.019 24.3822 162.524 22.9194 162.441 20.8566L176.029 20.8697C176.029 20.8697 176.385 20.8632 176.423 20.5153C176.686 18.5572 176.549 16.5659 176.018 14.6625H176.017ZM53.685 17.5008C53.8781 16.2078 54.2326 15.1323 54.7839 14.295C55.6146 13.0226 56.8842 12.3259 58.6667 12.3259C60.4491 12.3259 61.6287 13.0264 62.4773 14.295C63.0342 15.1323 63.278 16.2547 63.3746 17.5008H53.685ZM67.1955 14.6588C66.8542 13.3733 66.0131 12.0737 65.459 11.4792C64.5841 10.5416 63.729 9.88525 62.8814 9.51019C61.6497 8.98794 60.3252 8.71973 58.9873 8.72164C57.2996 8.72164 55.7515 9.00293 54.5035 9.59365C53.2959 10.1466 52.2269 10.9622 51.3746 11.9809C50.5264 13.0181 49.9 14.2184 49.534 15.5074C49.1291 16.9173 48.9279 18.378 48.9367 19.8449C48.9209 21.3141 49.128 22.7772 49.5509 24.1843C49.941 25.4678 50.6139 26.6475 51.52 27.6367C52.4117 28.6091 53.5603 29.3704 54.9358 29.9002C56.3113 30.43 57.9616 30.7019 59.8678 30.6991C63.7918 30.685 65.8584 29.8102 66.7126 29.3395C66.8635 29.256 67.007 29.1098 66.826 28.6888L65.9418 26.2012C65.805 25.8261 65.4271 25.9668 65.4271 25.9668C64.4557 26.3278 63.0764 26.9757 59.8472 26.9691C57.744 26.9691 56.181 26.3446 55.203 25.3751C54.1979 24.3803 53.7028 22.9176 53.6203 20.8547L67.2067 20.8679C67.2067 20.8679 67.564 20.8613 67.6015 20.5134C67.8639 18.555 67.7251 16.5637 67.1936 14.6607L67.1955 14.6588ZM24.3161 26.3972C23.7854 25.9724 23.7123 25.8655 23.5313 25.5917C23.2641 25.1745 23.1281 24.58 23.1281 23.8261C23.1281 22.6297 23.5219 21.7718 24.3395 21.1942C24.3302 21.1942 25.5088 20.1759 28.2776 20.2125C29.5128 20.2358 30.7451 20.341 31.9663 20.5275V26.7047C30.7553 26.9489 29.5292 27.1118 28.2964 27.1923C25.5313 27.3592 24.303 26.3943 24.3123 26.3981L24.3161 26.3972ZM29.7188 16.851C29.1675 16.8107 28.453 16.7872 27.5978 16.7872C26.4686 16.7837 25.3438 16.9287 24.2523 17.2186C23.2348 17.4813 22.2732 17.9261 21.4141 18.5313C20.5941 19.1165 19.9203 19.8831 19.445 20.7713C18.964 21.6667 18.7202 22.7216 18.7202 23.904C18.7202 25.106 18.9275 26.1543 19.3419 27.0057C19.7451 27.8511 20.3545 28.5814 21.114 29.1294C21.8642 29.6808 22.8018 30.0849 23.8829 30.3287C25.0641 30.5844 26.2702 30.7074 27.4788 30.6953C28.8612 30.6972 30.2414 30.5821 31.6044 30.3512C32.9368 30.1243 34.573 29.7942 35.0268 29.6949C35.3456 29.618 35.6628 29.5367 35.9785 29.4511C36.3161 29.3676 36.2889 29.0066 36.2889 29.0066L36.2823 16.5819C36.2823 13.8562 35.5547 11.8365 34.1257 10.581C32.6968 9.32548 30.5992 8.7057 27.8848 8.7057C26.8665 8.7057 25.2265 8.84634 24.2448 9.04325C24.2448 9.04325 21.2763 9.61803 20.0545 10.5725C20.0545 10.5725 19.7873 10.7394 19.9345 11.1136L20.8956 13.6986C20.9095 13.7428 20.9322 13.7837 20.9623 13.8189C20.9925 13.8541 21.0294 13.8828 21.0709 13.9034C21.1124 13.924 21.1576 13.936 21.2039 13.9387C21.2501 13.9413 21.2964 13.9346 21.34 13.919C21.4173 13.8875 21.4922 13.8506 21.5641 13.8084C24.1783 12.386 27.4844 12.4291 27.4844 12.4291C28.9537 12.4291 30.0826 12.7235 30.844 13.3077C31.5847 13.8702 31.9616 14.7329 31.9616 16.5435V17.1173C30.7933 16.9504 29.7216 16.8538 29.7216 16.8538L29.7188 16.851ZM139.308 9.85337C139.328 9.80813 139.338 9.75937 139.338 9.71C139.339 9.66063 139.329 9.6117 139.31 9.56614C139.291 9.52058 139.263 9.47934 139.228 9.44491C139.192 9.41048 139.15 9.38357 139.104 9.3658C138.874 9.27204 137.718 9.03106 136.827 8.9748C135.12 8.87166 134.172 9.16233 133.324 9.53738C132.475 9.91244 131.548 10.5322 131.026 11.2298V9.57583C131.029 9.52271 131.021 9.46961 131.002 9.41973C130.984 9.36985 130.956 9.32421 130.919 9.28552C130.883 9.24683 130.839 9.2159 130.79 9.19458C130.741 9.17325 130.689 9.16196 130.635 9.16139H127.153C127.1 9.16196 127.047 9.17325 126.999 9.19458C126.95 9.2159 126.906 9.24683 126.87 9.28552C126.833 9.32421 126.805 9.36985 126.786 9.41973C126.768 9.46961 126.76 9.52271 126.762 9.57583V29.8411C126.763 29.9507 126.807 30.0556 126.884 30.133C126.962 30.2104 127.067 30.2541 127.177 30.2546H130.751C130.86 30.2541 130.965 30.2103 131.042 30.1328C131.119 30.0553 131.162 29.9504 131.162 29.8411V19.7146C131.162 18.3559 131.312 16.9954 131.613 16.1515C131.913 15.3076 132.306 14.6354 132.801 14.1506C133.273 13.6861 133.849 13.3406 134.481 13.1426C135.073 12.9713 135.687 12.8848 136.304 12.8857C136.806 12.8988 137.306 12.9616 137.796 13.0732C138.057 13.1032 138.204 12.9429 138.29 12.7057C138.524 12.084 139.186 10.2247 139.312 9.85431" fill="#C4C4C4"/>
<path d="M105.802 0.462002C105.362 0.328313 104.913 0.22123 104.46 0.141329C103.85 0.0407287 103.232 -0.00633277 102.614 0.000682751C100.155 0.000682751 98.2192 0.695477 96.8596 2.0635C95.5001 3.43152 94.5896 5.49903 94.1283 8.22757L93.9614 9.14552H90.8765C90.7659 9.14555 90.659 9.18549 90.5755 9.25801C90.4919 9.33053 90.4374 9.43075 90.4218 9.54027L89.9183 12.3682C89.8808 12.6354 89.998 12.8061 90.359 12.8061H93.3594L90.314 29.8084C90.0767 31.1783 89.8029 32.3035 89.4991 33.1577C89.1954 34.0119 88.9112 34.6307 88.5512 35.0911C88.2033 35.5318 87.8761 35.859 87.3088 36.0494C86.7915 36.2118 86.2513 36.2896 85.7092 36.28C85.3434 36.2731 84.9791 36.233 84.6206 36.16C84.3673 36.1104 84.1208 36.0307 83.8864 35.9228C83.8864 35.9228 83.5357 35.7896 83.3951 36.1394C83.2844 36.43 82.4837 38.6307 82.3862 38.9017C82.2887 39.1726 82.4265 39.3817 82.5972 39.4455C83.0038 39.591 83.4186 39.7125 83.8395 39.8093C84.4927 39.9524 85.1608 40.0154 85.8292 39.9968C87.0782 39.9968 88.2202 39.8196 89.1653 39.4793C90.1105 39.1389 90.9412 38.5416 91.6764 37.7296C92.4677 36.8539 92.9647 35.9396 93.4391 34.687C93.9079 33.4521 94.3139 31.9153 94.6346 30.1263L97.6969 12.8061H102.171C102.282 12.8063 102.39 12.7661 102.473 12.6929C102.557 12.6198 102.611 12.5186 102.625 12.4085L103.132 9.58341C103.166 9.31337 103.053 9.14646 102.689 9.14646H98.3439C98.3683 9.0527 98.5643 7.51965 99.0622 6.0813C99.2697 5.53438 99.5945 5.03958 100.014 4.6317C100.332 4.30867 100.723 4.06601 101.153 3.92378C101.626 3.77862 102.118 3.70869 102.612 3.71657C102.986 3.71671 103.36 3.75345 103.727 3.82627C104.148 3.92003 104.312 3.9641 104.422 3.99692C104.866 4.13101 104.926 3.99692 105.013 3.78689L106.052 0.930824C106.159 0.623277 105.896 0.492945 105.802 0.456376V0.462002ZM45.1046 29.8422C45.1069 29.895 45.0984 29.9478 45.0798 29.9974C45.0612 30.0469 45.0328 30.0922 44.9964 30.1306C44.9599 30.1689 44.916 30.1995 44.8674 30.2205C44.8188 30.2415 44.7665 30.2525 44.7136 30.2528H41.1121C41.0594 30.2524 41.0073 30.2413 40.9589 30.2202C40.9106 30.1991 40.8671 30.1685 40.8309 30.1301C40.7947 30.0917 40.7667 30.0464 40.7484 29.997C40.7302 29.9475 40.7222 29.8948 40.7249 29.8422V0.844563C40.7222 0.791898 40.7302 0.739236 40.7484 0.689752C40.7667 0.640268 40.7947 0.594985 40.8309 0.556619C40.8671 0.518253 40.9106 0.4876 40.9589 0.466506C41.0073 0.445412 41.0594 0.434313 41.1121 0.433874H44.7155C44.7684 0.434203 44.8207 0.445197 44.8693 0.466203C44.9179 0.487209 44.9617 0.517797 44.9982 0.556133C45.0347 0.594469 45.0631 0.639765 45.0817 0.689322C45.1003 0.73888 45.1087 0.79168 45.1065 0.844563L45.1046 29.8422Z" fill="#C4C4C4"/>
</svg>
