<svg width="297" height="40" viewBox="0 0 297 40" fill="none" xmlns="http://www.w3.org/2000/svg">
<path d="M159.605 8.18991H164.176V31.9039H158.367L151.601 20.9519C150.458 19.0528 149.411 17.0481 149.411 17.0481H149.318V31.9039H144.747V8.18991H150.175L158.175 21.1418C158.745 21.9988 159.124 22.8558 159.507 23.8077L159.602 8.18991H159.605ZM185.983 17.9039H177.985V8.09614H172.176V31.8101H177.985V21.7139H185.983V31.8101H191.792V8.09614H185.983V17.9039ZM100.753 21.524H108.277V18H100.753V11.8101H110.842V8.18991H94.9365V31.9039H111.037V27.9039H100.753V21.524ZM79.803 13.524C79.6312 13.302 79.5461 13.0249 79.5636 12.7447C79.581 12.4645 79.6999 12.2002 79.8979 12.0012C80.1048 11.8099 80.3783 11.7072 80.66 11.7151H89.3246V8.18991H79.041C77.7191 8.14294 76.4312 8.61475 75.4525 9.50453C74.4738 10.3943 73.8818 11.6315 73.803 12.9519C73.803 14.3763 73.8979 15.3329 75.9929 17.5229L83.708 25.6178C83.9744 25.8281 84.1518 26.1311 84.2048 26.4663C84.2579 26.8016 84.1826 27.1445 83.9941 27.4267C83.708 27.8077 83.327 27.9976 82.8511 27.9015H73.327V31.9015H84.1828C87.3258 31.9964 89.8968 29.6154 89.9917 26.4736V26.2825C89.9917 24.7596 89.6107 23.6166 87.5157 21.5217L79.803 13.524ZM132.179 23.7139C131.8 22.7776 131.322 21.884 130.755 21.0481L122.751 8.09614H117.323V31.8101H121.899V17.0481H121.994C122.625 18.4025 123.357 19.7075 124.184 20.9519L130.95 31.9039H136.758V8.18991H132.188V23.7139H132.179ZM260.834 21.524H268.357V18H260.834V11.8101H270.923V8.18991H254.931V31.9039H271.024V27.9039H260.74L260.834 21.524ZM296.736 31.9039H290.451L285.88 22.1958H283.308V31.9098H277.499V8.18991H288.165C293.308 8.18991 295.688 11.3329 295.688 15.0469C295.686 16.4541 295.245 17.8256 294.425 18.9695C293.606 20.1134 292.449 20.9726 291.117 21.4267L296.736 31.9039ZM290.641 15.143C290.641 14.0961 289.975 11.8101 286.927 11.8101H283.308V18.5757H286.832C290.07 18.5757 290.641 16.1947 290.641 15.1466V15.143ZM239.789 13.524C239.617 13.302 239.532 13.0249 239.549 12.7447C239.567 12.4645 239.686 12.2002 239.884 12.0012C240.091 11.8101 240.364 11.7075 240.646 11.7151H249.31V8.18991H239.027C237.705 8.14294 236.417 8.61475 235.438 9.50453C234.46 10.3943 233.868 11.6315 233.789 12.9519C233.789 14.3763 233.885 15.3329 235.98 17.5229L243.695 25.6178C243.962 25.8279 244.139 26.1309 244.192 26.4662C244.245 26.8016 244.17 27.1446 243.981 27.4267C243.695 27.8077 243.314 27.9976 242.838 27.9015H233.315V31.9015H244.171C247.314 31.9964 249.885 29.6154 249.987 26.4736V26.2825C249.987 24.7596 249.606 23.6166 247.511 21.5217L239.796 13.5217L239.789 13.524ZM205.605 21.524H213.128V18H205.605V11.8101H215.694V8.18991H199.697V31.9039H215.786V27.9039H205.502L205.605 21.524ZM222.269 31.9039H228.078V8.18991H222.269V31.9039ZM0 0V40H53.3282V0H0ZM29.3306 3.71513C26.1887 4.95312 23.1407 7.62018 20.6659 13.0481C20 14.5721 18.5709 17.619 18 18.9519C13.0481 29.8089 10.5721 32.0938 3.04451 32.0938V3.04926H29.2356C29.3345 3.05593 29.4276 3.09821 29.4976 3.16827C29.5677 3.23833 29.61 3.33141 29.6166 3.43027C29.6166 3.52522 29.5217 3.62018 29.3306 3.71513ZM50.2813 7.90623V36.9507H24.095C23.9962 36.944 23.9033 36.9017 23.8334 36.8316C23.7636 36.7616 23.7215 36.6685 23.7151 36.5697C23.7166 36.4961 23.7344 36.4238 23.7673 36.3579C23.8001 36.292 23.8472 36.2342 23.905 36.1887C27.0481 34.9507 30.095 32.2849 32.5697 26.857C33.2368 25.3329 34.6647 22.2861 35.2356 20.9519C40.2837 10.1911 42.7597 7.90623 50.2825 7.90623H50.2813Z" fill="#C4C4C4"/>
</svg>
