<svg width="44" height="40" viewBox="0 0 44 40" fill="none" xmlns="http://www.w3.org/2000/svg">
<path d="M0.0800803 31.04C0.213254 30.8267 0.426567 30.8134 0.720018 31C7.38668 34.8668 14.64 36.8001 22.48 36.8001C27.7067 36.8001 32.8667 35.8268 37.9602 33.8801C38.0933 33.8267 38.2866 33.7467 38.5401 33.64C38.7935 33.5334 38.9735 33.4534 39.08 33.4C39.4802 33.24 39.7935 33.3201 40.0201 33.64C40.2466 33.96 40.1733 34.2533 39.8001 34.52C39.3201 34.8668 38.7067 35.2668 37.9602 35.72C35.6666 37.0799 33.1066 38.1333 30.28 38.8801C27.4534 39.6269 24.6935 40.0002 22.0001 40C17.8401 40 13.9068 39.2733 10.2001 37.8201C6.49342 36.3668 3.17341 34.3201 0.240065 31.6801C0.0800216 31.5467 0 31.4133 0 31.28C0.00195216 31.1938 0.0298596 31.1101 0.0800803 31.04ZM12.1201 19.6401C12.1201 17.8001 12.5734 16.2267 13.4801 14.9199C14.3867 13.6132 15.6267 12.6265 17.2 11.9599C18.64 11.3466 20.4134 10.9066 22.5202 10.6399C23.24 10.56 24.4133 10.4534 26.0402 10.32V9.6399C26.0402 7.93317 25.8535 6.78652 25.4801 6.19997C24.9201 5.39987 24.0401 4.99988 22.8401 5H22.5202C21.6402 5.07943 20.8801 5.35969 20.2401 5.84075C19.6 6.32182 19.1867 6.98851 19.0001 7.84082C18.8934 8.37411 18.6267 8.68076 18.2 8.76078L13.6001 8.20004C13.1467 8.09327 12.92 7.85326 12.92 7.48002C12.9221 7.38542 12.9355 7.2914 12.96 7.20001C13.4134 4.82717 14.5267 3.06716 16.3001 1.91999C18.0735 0.772818 20.1468 0.132822 22.5202 0H23.52C26.5601 0 28.9335 0.786664 30.6401 2.35999C30.9075 2.62787 31.1546 2.91531 31.3793 3.21993C31.606 3.52676 31.7861 3.80009 31.9195 4.03992C32.0529 4.27975 32.1728 4.62641 32.2794 5.0799C32.386 5.53328 32.4661 5.84662 32.5194 6.01992C32.5728 6.19322 32.6128 6.56658 32.6395 7.13999C32.6661 7.71316 32.6794 8.05314 32.6794 8.15991V17.8399C32.6794 18.5334 32.7792 19.167 32.9786 19.7407C33.1781 20.3145 33.3717 20.7278 33.5594 20.9807C33.746 21.2339 34.0526 21.6406 34.4794 22.2007C34.6394 22.4408 34.7195 22.6541 34.7195 22.8406C34.7195 23.054 34.6128 23.2406 34.3995 23.4007C32.1866 25.3203 30.9868 26.3603 30.8001 26.5208C30.4801 26.7609 30.0935 26.7876 29.6401 26.6009C29.2668 26.2809 28.9402 25.9743 28.6601 25.6809C28.38 25.3876 28.18 25.1742 28.0601 25.0408C27.9401 24.9077 27.7465 24.6477 27.4793 24.261C27.2122 23.8742 27.0255 23.6142 26.9195 23.4809C25.4262 25.1075 23.9595 26.1208 22.5194 26.5208C21.6127 26.7876 20.4927 26.921 19.1594 26.9209C17.1061 26.9209 15.4194 26.2873 14.0994 25.0201C12.7794 23.7529 12.1196 21.9595 12.1201 19.6401ZM19.0001 18.84C19.0001 19.88 19.2601 20.7134 19.78 21.3401C20.2999 21.9667 20.9999 22.2801 21.88 22.2801C21.9943 22.2763 22.1081 22.2628 22.2201 22.24C22.3666 22.2134 22.4664 22.2001 22.5193 22.2C23.6392 21.9067 24.5058 21.1867 25.1192 20.0399C25.4174 19.521 25.6397 18.962 25.7792 18.3799C25.9257 17.78 26.0057 17.2931 26.0192 16.9191C26.0327 16.5452 26.0397 15.9324 26.0402 15.0808V14.08C24.4935 14.08 23.3201 14.1867 22.5202 14.4C20.1734 15.0667 19 16.5467 19.0001 18.84ZM35.8001 31.72C35.8625 31.6012 35.9435 31.4932 36.0402 31.4001C36.7066 30.9467 37.3466 30.64 37.9602 30.4799C38.9733 30.2132 39.96 30.0666 40.9201 30.0399C41.174 30.0127 41.4305 30.0262 41.6801 30.0801C42.8801 30.1867 43.6001 30.3867 43.8402 30.6801C43.9468 30.8401 44.0001 31.0801 44.0001 31.4001V31.6801C44.0001 32.6134 43.7468 33.7134 43.2402 34.9801C42.7335 36.2468 42.0268 37.2668 41.1201 38.0401C40.9868 38.1467 40.8668 38.2 40.7601 38.2C40.7044 38.1994 40.6496 38.1857 40.6002 38.1601C40.4401 38.08 40.4001 37.9333 40.4801 37.7201C41.4668 35.4 41.9601 33.7867 41.9601 32.8801C41.9601 32.5867 41.9068 32.3734 41.8001 32.24C41.5334 31.92 40.7868 31.76 39.5602 31.76C39.1068 31.76 38.5735 31.7867 37.9602 31.8401C37.2935 31.92 36.6801 31.9999 36.1201 32.08C35.9601 32.08 35.8535 32.0533 35.8001 32.0001C35.7467 31.9468 35.7334 31.8935 35.7601 31.8401C35.7601 31.8133 35.7733 31.7734 35.8001 31.72Z" fill="#C4C4C4"/>
</svg>
