<svg width="123" height="40" viewBox="0 0 123 40" fill="none" xmlns="http://www.w3.org/2000/svg">
<path d="M16.1811 0H15.0915C12.009 0.185274 8.98529 1.19252 6.49733 3.02222C3.90692 4.87251 1.89194 7.52517 0.843524 10.5268C-0.307823 13.8186 -0.287237 17.5167 0.946454 20.786C2.262 24.343 4.93475 27.3652 8.28586 29.1537C11.0821 30.6751 14.3308 31.2716 17.476 30.9628C20.7247 30.6957 23.9106 29.34 26.2143 27.0363C29.6684 23.7876 30.7374 18.6681 29.9972 14.1245H15.6258V18.3598C17.9008 18.3735 20.1758 18.3689 22.4509 18.3644C23.5885 18.3621 24.7267 18.3598 25.8644 18.3598C25.6178 20.4561 24.8571 22.6157 23.2122 24.0342C21.1168 26.0491 18.1137 26.9334 15.2351 26.7687C12.1511 26.6662 9.17008 25.1855 7.21686 22.8216C5.18129 20.3953 4.29756 17.106 4.72938 13.9808C5.12002 10.8145 6.92914 7.85405 9.60189 6.1062C12.0487 4.44119 15.1949 3.88585 18.1137 4.50245C20.0875 4.87251 21.8966 5.92142 23.3975 7.27813C23.9493 6.70282 24.5146 6.14078 25.0819 5.57686C25.5078 5.15349 25.9348 4.729 26.3579 4.29708C23.6852 1.60375 19.964 0.082344 16.1811 0Z" fill="#C4C4C4"/>
<path d="M101.936 1.069H97.5355C97.5355 4.33201 97.5378 7.59497 97.5401 10.8571C97.5447 17.3791 97.5492 23.898 97.5355 30.408C98.6306 30.4389 99.738 30.435 100.839 30.4311C101.206 30.4299 101.571 30.4286 101.936 30.4286V1.069Z" fill="#C4C4C4"/>
<path fill-rule="evenodd" clip-rule="evenodd" d="M39.7834 11.2463C42.4959 10.7307 45.4367 11.3081 47.6782 12.9319C49.7137 14.3715 51.1322 16.633 51.564 19.0999C52.1194 21.9579 51.4204 25.0831 49.5701 27.3446C47.5757 29.8732 44.3065 31.2304 41.12 31.0246C38.2003 30.8604 35.3633 29.4002 33.636 27.0157C31.6828 24.3841 31.2098 20.7654 32.2793 17.6814C33.3483 14.3715 36.3706 11.8423 39.7834 11.2463ZM40.4 15.1528C39.2717 15.4439 38.2643 16.0843 37.5219 16.9825C35.5275 19.3675 35.651 23.2529 37.8508 25.4737C39.1051 26.7481 40.9965 27.3446 42.7439 26.9932C44.3682 26.705 45.7867 25.6154 46.567 24.1763C47.9242 21.7295 47.5336 18.3578 45.4568 16.4458C44.1207 15.2121 42.1675 14.6984 40.399 15.1508L40.4 15.1528Z" fill="#C4C4C4"/>
<path fill-rule="evenodd" clip-rule="evenodd" d="M70.3992 13.6926C68.0735 11.5135 64.6812 10.6498 61.5767 11.2463H61.5791C58.228 11.8218 55.2675 14.2686 54.1368 17.4761C53.006 20.6213 53.4373 24.3224 55.4317 27.0157C57.2002 29.462 60.1401 30.9422 63.1211 31.0246C66.2463 31.1677 69.4126 29.8115 71.3658 27.3446C74.5934 23.4382 74.1822 17.0854 70.3992 13.6926ZM59.3176 16.9619C60.0673 16.076 61.0729 15.4441 62.1962 15.1528H62.1952C63.9426 14.7004 65.8958 15.1939 67.2319 16.4271C69.3293 18.3392 69.7199 21.7114 68.3833 24.1783C67.603 25.6173 66.1639 26.6868 64.5602 26.9951C62.751 27.3652 60.7978 26.7069 59.544 25.3708C57.4261 23.1299 57.3438 19.3058 59.3176 16.9619Z" fill="#C4C4C4"/>
<path fill-rule="evenodd" clip-rule="evenodd" d="M80.06 12.4389C82.4244 10.9586 85.5701 10.5474 88.1194 11.8218C88.9213 12.1712 89.579 12.7677 90.2162 13.3637C90.2265 13.0864 90.2265 12.8037 90.2265 12.5184C90.2265 12.2333 90.2265 11.9451 90.2368 11.6576C90.9257 11.6679 91.6144 11.6679 92.3057 11.6679C92.997 11.6679 93.6911 11.6679 94.3903 11.6781V29.8134C94.3697 32.5479 93.6703 35.4471 91.6945 37.441C89.5379 39.6413 86.2255 40.3196 83.2444 39.8672C80.0585 39.3942 77.2818 37.0734 76.0481 34.1326C76.8128 33.7632 77.6011 33.441 78.3934 33.1172C78.8794 32.9187 79.3673 32.7193 79.8517 32.5082C80.5717 34.1943 82.0313 35.6334 83.861 35.9623C85.6907 36.2911 87.8086 35.8392 89.0012 34.3178C90.2755 32.7553 90.2755 30.6168 90.2138 28.7047C89.2683 29.6301 88.1787 30.4526 86.8627 30.7633C84.0051 31.5652 80.8594 30.578 78.6596 28.6454C76.4388 26.7128 75.1232 23.7317 75.2463 20.7713C75.308 17.4202 77.1995 14.1921 80.0575 12.4447L80.06 12.4389ZM84.3134 15.0763C83.0591 15.2817 81.8872 15.9811 81.0853 16.9472C79.1527 19.2509 79.1527 22.9299 81.1059 25.1914C82.2161 26.528 84.0051 27.2681 85.7319 27.0833C87.3562 26.9186 88.857 25.8908 89.6589 24.4719C91.0156 22.0667 90.7897 18.7975 88.96 16.7006C87.8292 15.4052 86.0191 14.768 84.3134 15.0763Z" fill="#C4C4C4"/>
<path fill-rule="evenodd" clip-rule="evenodd" d="M116.656 11.6164C113.49 10.4033 109.687 11.1836 107.219 13.4873C103.375 17.0442 103.045 23.6641 106.458 27.6117C108.535 30.1203 111.948 31.3549 115.155 30.9628C118.054 30.6957 120.747 29.0096 122.35 26.6045C121.785 26.2241 121.22 25.8489 120.654 25.4737C120.089 25.0985 119.524 24.7233 118.958 24.343C118.508 24.9184 118.035 25.5149 117.439 25.9668C115.938 27.1593 113.8 27.3853 112.011 26.7481C110.737 26.3163 109.791 25.2473 109.174 24.0753C111.369 23.1648 113.56 22.2592 115.751 21.3537C118.012 20.4192 120.272 19.4848 122.538 18.5451C121.57 15.6047 119.658 12.7472 116.656 11.6164ZM108.452 20.7448C108.432 19.5317 108.72 18.298 109.419 17.2908C110.508 15.687 112.544 14.6386 114.497 14.9881C115.71 15.1734 116.903 15.8723 117.396 17.0237C114.415 18.2706 111.434 19.511 108.452 20.7448Z" fill="#C4C4C4"/>
</svg>
