<svg width="87" height="40" viewBox="0 0 87 40" fill="none" xmlns="http://www.w3.org/2000/svg">
<path fill-rule="evenodd" clip-rule="evenodd" d="M56.248 2.24884V0.000454664H47.2544V12.3443H56.248V10.3081H49.7567V6.95729H55.4417V4.7516H49.7567V2.24884H56.248ZM53.7457 13.6171V18.3678H48.8237V13.6171H46.2801V25.9192H48.8237V20.404H53.7457V25.9192H56.248V13.6171H53.7457ZM56.248 29.3962V27.1914H47.2544V39.7025H56.248V37.4555H49.7567V34.1465H55.4417V32.1106H49.7567V29.3962H56.248ZM45.8127 0.000454664H43.31V4.7516H38.3894V0.000454664H35.8866V12.3443H38.3894V6.83011H43.31V12.3443H45.8127V0.000454664ZM25.1121 0.000454664V2.24884H28.9275V12.3443H31.4303V2.24884H35.248V0.000454664H25.1121ZM17.2222 13.2778C13.2773 13.2778 11.1988 15.5257 11.1988 19.7677C11.1988 24.2218 13.2773 26.4274 17.2222 26.4274C21.1671 26.4274 23.2057 24.2218 23.2057 19.7677C23.2057 15.5257 21.1671 13.2778 17.2222 13.2778ZM13.9137 19.7677C13.9137 16.9256 15.0165 15.5257 17.2222 15.5257C19.5978 15.5257 20.7007 16.9256 20.7007 19.7677C20.7007 22.7801 19.5978 24.2218 17.2222 24.2218C15.0165 24.2218 13.9137 22.7801 13.9137 19.7677ZM7.59321 13.6171V22.3127L2.67491 13.6171H0V25.9192H2.37558V17.264L7.42333 25.9183H10.096V13.6171H7.59321ZM19.2585 32.281V29.3962H25.579V27.1914H16.7558V39.7025H19.2585V34.4871H24.8155V32.281H19.2585ZM45.3467 15.8228V13.6171H35.2503V15.8228H39.0258V25.9192H41.5694V15.8228H45.3467ZM29.6933 21.2103C30.4996 21.2103 31.1355 21.337 31.4325 21.6763L31.899 25.9192H34.7429V25.6217C34.4463 25.4513 34.2764 24.6882 34.2764 23.2456C34.2764 21.5069 33.6405 20.573 32.7071 20.1065C33.9789 19.5973 34.6148 18.6644 34.6148 17.095C34.6148 14.8889 33.343 13.6166 30.6699 13.6166H24.4775V25.9187H27.0211V21.2103H29.6933ZM27.0211 19.1313V15.8228H30.1598C31.4316 15.8228 32.0675 16.2892 32.0675 17.3921C32.0675 18.4949 31.4316 19.1313 30.0313 19.1313H27.0211ZM31.4325 27.1914H28.4211L24.0092 39.7025H26.6818L27.6571 36.9899H32.2379L33.0014 39.7038H35.7163L31.4321 27.1914H31.4325ZM29.8632 30.0326L31.4325 34.9541H28.293L29.8628 30.0326H29.8632ZM43.7769 31.3044H46.2801C46.1525 30.202 45.8132 29.269 45.0487 28.4624C43.9468 27.5294 42.674 26.893 40.9348 26.893C39.1956 26.893 37.9229 27.5289 36.8201 28.6327C35.8871 29.7351 35.2507 31.3044 35.2507 33.3838C35.2507 37.7952 37.1171 40 40.765 40C43.9445 40 45.6851 38.4302 46.2801 35.4192H43.7774C43.4381 36.8609 42.3347 37.6249 40.9348 37.6249C38.8563 37.6249 37.9229 36.2259 37.9229 33.5101C37.9229 30.5418 38.8563 29.0987 40.9348 29.0987C42.3347 29.0987 43.141 29.9054 43.7774 31.3044H43.7769ZM57.9867 0C65.8775 0 72.7062 2.88475 78.2205 8.39899C83.9046 14.0834 86.7468 20.8841 86.7471 28.8012V39.7025H75.2099V28.4628C75.2099 24.0523 73.6406 20.2342 70.4587 17.0955C69.6947 16.2892 68.8894 15.6529 67.9564 15.017C65.4128 13.2778 62.3995 12.5142 59.2604 12.5142H57.9886V0.000454664L57.9867 0ZM74.1052 39.7025H65.1117V31.0083C65.1117 29.5666 64.6456 28.4646 63.67 27.5298C62.7365 26.5551 61.4643 26.0881 60.1915 26.0881H57.9858V13.6171H59.2577C62.5657 13.6171 65.4078 14.55 67.9533 16.4591C68.5892 16.7557 69.2251 17.3921 69.692 17.859C72.7044 20.871 74.1034 24.3494 74.1034 28.4637L74.1052 39.7025ZM64.0102 39.7025H57.9863V27.1914H60.1924C61.1681 27.1914 62.1002 27.5298 62.9069 28.2938C63.5428 28.9297 64.0102 29.9059 64.0102 31.0083V39.7025Z" fill="#C4C4C4"/>
</svg>
