<svg width="351" height="353" viewBox="0 0 351 353" fill="none" xmlns="http://www.w3.org/2000/svg">
<path d="M230.29 83.7879C244.577 57.7858 258.864 31.2982 259.178 30.9839C259.707 29.9967 260.033 28.9139 260.139 27.7991C260.244 26.6843 260.127 25.5598 259.793 24.4909C259.459 23.4221 258.915 22.4305 258.194 21.5741C257.472 20.7177 256.587 20.0137 255.591 19.5031C254.594 18.9925 253.506 18.6854 252.389 18.6001C251.273 18.5147 250.15 18.6528 249.088 19.0061C248.025 19.3593 247.043 19.9208 246.2 20.6576C245.357 21.3945 244.669 22.2919 244.177 23.2975C244.177 23.5833 230.718 50.5853 217.889 77.3874C190.487 134.535 191.087 134.964 195.03 136.964C195.579 137.32 196.207 137.536 196.858 137.593C199.944 137.593 204.574 130.192 230.29 83.7879Z" fill="#61B7F5"/>
<path d="M176.657 68.4154C176.143 38.6987 175.257 8.61041 175.257 8.23895C175.231 7.1122 174.98 6.002 174.518 4.974C174.056 3.946 173.393 3.02118 172.567 2.25405C171.742 1.48693 170.77 0.893061 169.711 0.507782C168.652 0.122503 167.526 -0.0464142 166.401 0.0109154C165.275 0.0682451 164.173 0.350687 163.158 0.841584C162.144 1.33248 161.238 2.02177 160.495 2.86881C159.751 3.71586 159.185 4.70349 158.83 5.7731C158.475 6.84272 158.338 7.97263 158.427 9.09613C158.427 9.41044 160.427 39.4416 162.713 69.1012C167.342 128.935 168.199 132.163 171.999 132.163H172.685C177.086 131.906 177.771 131.878 176.657 68.4154Z" fill="#61B7F5"/>
<path d="M110.766 89.4458C140.168 132.306 145.854 139.85 148.997 139.85C149.698 139.788 150.365 139.52 150.912 139.078C154.627 136.678 155.198 136.221 122.51 81.9309C107.194 56.4717 91.3929 30.8409 91.0786 30.498C90.4835 29.5657 89.71 28.7601 88.8028 28.1273C87.8956 27.4946 86.8725 27.0474 85.792 26.8111C84.7115 26.5749 83.5949 26.5542 82.5065 26.7505C81.418 26.9468 80.379 27.3562 79.449 27.955C77.5828 29.1925 76.2749 31.1109 75.805 33.3002C75.3351 35.4896 75.7405 37.7759 76.9345 39.6702C77.2203 39.8988 93.9644 64.9295 110.766 89.4458Z" fill="#61B7F5"/>
<path d="M21.9015 106.818C22.1872 106.818 49.1894 120.248 75.9915 133.078C116.881 152.651 128.71 157.937 132.882 157.937C134.568 157.937 134.996 157.079 135.568 155.965C137.597 152.051 137.911 151.451 82.392 120.677C56.3899 106.39 29.9021 92.1029 29.5878 91.8172C28.6075 91.2998 27.5331 90.9851 26.4285 90.8918C25.324 90.7986 24.2119 90.9288 23.1587 91.2745C22.1017 91.6039 21.1205 92.1395 20.272 92.8507C19.4235 93.5619 18.7246 94.4344 18.2155 95.4175C17.2191 97.4228 17.0469 99.7383 17.7357 101.869C18.4246 104 19.9197 105.776 21.9015 106.818Z" fill="#61B7F5"/>
<path d="M130.682 178.253C130.482 173.852 130.425 173.195 66.991 174.281C37.2743 174.824 7.15738 175.681 6.8145 175.681C4.85141 176.092 3.09483 177.179 1.85019 178.752C0.605559 180.324 -0.048205 182.284 0.00277083 184.289C0.0537466 186.294 0.806112 188.218 2.12906 189.725C3.45201 191.233 5.26173 192.229 7.24317 192.54H7.61465C7.90038 192.54 37.96 190.539 67.6195 188.254C130.91 183.367 130.882 182.682 130.682 178.253Z" fill="#61B7F5"/>
<path d="M137.625 200.055C135.254 196.34 134.768 195.768 80.4777 228.457C54.9899 243.772 29.3878 259.574 29.0449 259.888C28.1118 260.482 27.3056 261.255 26.6729 262.162C26.0402 263.07 25.5937 264.093 25.359 265.174C24.9213 267.353 25.347 269.617 26.5464 271.488C27.7459 273.359 29.6253 274.692 31.788 275.204C32.3782 275.341 32.9824 275.408 33.5882 275.404C35.2229 275.407 36.8226 274.93 38.1885 274.032C38.4457 273.861 63.4763 257.116 87.9926 240.315C140.368 204.341 140.025 203.769 137.625 200.055Z" fill="#61B7F5"/>
<path d="M154.541 215.399C150.626 213.37 150.026 213.055 119.252 268.574C104.965 294.576 90.6787 321.064 90.3644 321.407C89.8038 322.397 89.4494 323.49 89.3225 324.621C89.1957 325.751 89.2989 326.896 89.6261 327.985C89.9534 329.075 90.4978 330.087 91.2266 330.96C91.9554 331.834 92.8536 332.551 93.8669 333.068C94.8801 333.585 95.9876 333.892 97.1226 333.97C98.2575 334.048 99.3963 333.895 100.471 333.521C101.545 333.147 102.533 332.56 103.374 331.794C104.215 331.028 104.892 330.1 105.365 329.065C105.365 328.808 118.824 301.806 131.653 274.975C159.056 217.77 158.456 217.456 154.541 215.399Z" fill="#61B7F5"/>
<path d="M176.857 220.285C172.457 220.513 171.771 220.542 172.885 284.004C173.399 313.721 174.285 343.809 174.285 344.18C174.423 346.358 175.387 348.402 176.98 349.894C178.573 351.386 180.675 352.214 182.857 352.21H183.257C185.486 352.063 187.569 351.052 189.063 349.392C190.557 347.732 191.345 345.555 191.258 343.323C191.258 343.038 189.258 313.007 186.972 283.319C181.915 220.056 181.286 220.085 176.857 220.285Z" fill="#61B7F5"/>
<path d="M238.776 262.946C202.916 210.598 202.345 210.97 198.63 213.342C194.915 215.713 194.344 216.199 227.033 270.489C242.348 295.977 258.149 321.607 258.464 321.922C259.221 323.115 260.268 324.097 261.507 324.776C262.746 325.456 264.137 325.811 265.55 325.808C267.163 325.813 268.742 325.347 270.093 324.465C271.951 323.228 273.254 321.315 273.724 319.132C274.193 316.95 273.793 314.67 272.608 312.778C272.322 312.549 255.578 287.462 238.776 262.946Z" fill="#61B7F5"/>
<path d="M327.641 245.601C327.355 245.601 300.353 232.171 273.551 219.313C216.403 191.911 215.975 192.511 213.974 196.454C211.974 200.397 211.631 200.997 267.15 231.743C293.152 246.03 319.64 260.316 319.955 260.631C321.149 261.243 322.47 261.566 323.812 261.574C324.684 261.569 325.551 261.434 326.384 261.174C327.976 260.666 329.381 259.695 330.421 258.387C331.461 257.078 332.088 255.489 332.223 253.823C332.357 252.157 331.993 250.489 331.178 249.03C330.362 247.571 329.131 246.387 327.641 245.63V245.601Z" fill="#61B7F5"/>
<path d="M341.928 159.851C341.642 159.851 311.582 161.852 281.923 164.137C218.66 169.024 218.689 169.852 218.889 174.11C218.889 177.339 219.089 178.567 243.691 178.567C252.863 178.567 265.407 178.395 282.58 178.081C312.297 177.567 342.413 176.681 342.756 176.681C343.883 176.656 344.993 176.405 346.021 175.943C347.049 175.481 347.974 174.817 348.741 173.991C349.508 173.166 350.102 172.195 350.487 171.136C350.873 170.077 351.041 168.951 350.984 167.825C350.927 166.7 350.645 165.597 350.154 164.583C349.663 163.568 348.973 162.662 348.126 161.919C347.279 161.175 346.292 160.609 345.222 160.254C344.152 159.899 343.022 159.762 341.899 159.851H341.928Z" fill="#61B7F5"/>
<path d="M211.917 152.337C212.546 153.308 213.031 154.08 214.374 154.08C218.175 154.08 228.89 148.079 269.065 123.934C294.552 108.619 320.154 92.8174 320.497 92.5031C321.435 91.9027 322.246 91.1234 322.883 90.2097C323.52 89.2961 323.971 88.2658 324.21 87.1779C324.448 86.0901 324.47 84.966 324.275 83.8696C324.079 82.7731 323.669 81.726 323.069 80.7879C322.469 79.8498 321.689 79.039 320.776 78.4021C319.862 77.7652 318.832 77.3144 317.744 77.0756C316.656 76.8368 315.532 76.8147 314.435 77.0104C313.339 77.2061 312.292 77.6158 311.354 78.2162C311.097 78.3591 286.066 95.1034 261.55 111.905C209.145 148.079 209.517 148.651 211.917 152.337Z" fill="#61B7F5"/>
</svg>
