<svg width="292" height="299" viewBox="0 0 292 299" fill="none" xmlns="http://www.w3.org/2000/svg">
<path d="M136.026 131.427L137.506 133.322C140.113 131.867 143.044 131.093 146.029 131.072C148.998 131.079 151.913 131.855 154.494 133.322L155.974 131.427C172.76 89.6457 181.38 45.0306 181.368 0C169.038 8.84483 157.183 18.3344 145.852 28.4293C134.509 18.3487 122.655 8.85973 110.336 0C110.416 45.0501 119.137 89.6661 136.026 131.427Z" fill="#FAF010"/>
<path d="M292 192.491C252.689 169.793 209.346 154.948 164.38 148.781H163.729C163.7 151.813 162.896 154.787 161.393 157.42C159.891 160.053 157.74 162.258 155.146 163.824C155.441 164.535 155.678 165.305 155.974 166.016C183.739 201.467 218.039 231.264 257.017 253.792C255.489 238.615 253.157 223.53 250.032 208.601C264.287 203.951 278.295 198.575 292 192.491Z" fill="#FAF010"/>
<path d="M136.026 166.134C136.322 165.424 136.559 164.654 136.914 163.884C134.304 162.349 132.14 160.159 130.635 157.531C129.129 154.903 128.335 151.928 128.331 148.899H127.621C82.6579 155.084 39.319 169.927 0 192.609C13.7069 198.723 27.7141 204.14 41.968 208.838C38.843 223.767 36.5114 238.852 34.9831 254.029C73.9718 231.466 108.273 201.629 136.026 166.134Z" fill="#FAF010"/>
<path d="M155.974 131.427L155.146 133.678C157.732 135.239 159.877 137.434 161.379 140.056C162.881 142.678 163.69 145.64 163.729 148.662H164.38C209.308 142.617 252.643 127.935 292 105.426C278.354 99.1605 264.384 93.6248 250.151 88.842C253.285 73.9142 255.617 58.8288 257.135 43.651C218.127 66.1845 183.79 95.9789 155.974 131.427Z" fill="#FAF010"/>
<path d="M128.331 148.662C128.335 145.633 129.129 142.658 130.635 140.03C132.14 137.402 134.304 135.213 136.914 133.678C136.559 132.908 136.322 132.197 136.026 131.427C108.261 95.9754 73.9613 66.1788 34.9831 43.651C36.5069 58.8282 38.8385 73.9133 41.968 88.842C27.7075 93.5441 13.6996 98.9806 0 105.13C39.3339 127.767 82.6679 142.589 127.621 148.781L128.331 148.662Z" fill="#FAF010"/>
<path d="M155.974 166.134L154.494 164.239C151.914 165.706 148.998 166.482 146.03 166.49C143.045 166.468 140.113 165.694 137.506 164.239L136.026 166.134C119.269 207.922 110.669 252.535 110.691 297.561C123.038 288.739 134.895 279.248 146.207 269.132C157.522 279.264 169.378 288.774 181.723 297.62C181.617 252.548 172.876 207.914 155.974 166.134Z" fill="#FAF010"/>
<path d="M146.563 20.3743L166.096 0.888336H124.661L146.563 20.3743Z" fill="#61B7F5"/>
<path d="M260.45 213.931L265.837 241.058L288.863 206.587L260.45 213.931Z" fill="#61B7F5"/>
<path d="M29.7742 212.984L3.61084 204.159L22.0791 241.295L29.7742 212.984Z" fill="#61B7F5"/>
<path d="M260.095 83.0375L286.968 89.3749L265.245 54.0751L260.095 83.0375Z" fill="#61B7F5"/>
<path d="M29.0048 83.5706L23.1447 56.5627L0.710449 91.3887L29.0048 83.5706Z" fill="#61B7F5"/>
<path d="M145.142 278.667L125.667 298.213H167.043L145.142 278.667Z" fill="#61B7F5"/>
</svg>
