<svg width="226" height="230" viewBox="0 0 226 230" fill="none" xmlns="http://www.w3.org/2000/svg">
<path d="M124.52 10.0135L126.949 10.3623C126.562 11.8869 125.658 13.0358 124.237 13.809C122.83 14.5832 120.977 14.8726 118.677 14.677C115.906 14.4414 113.818 13.5934 112.411 12.1329C111.005 10.6724 110.395 8.8395 110.583 6.6342C110.77 4.4289 111.66 2.72354 113.253 1.5181C114.859 0.313802 117.007 -0.173974 119.697 0.054768C121.849 0.237762 123.588 0.819034 124.914 1.79858C126.254 2.76583 127.004 3.98087 127.164 5.44372L124.709 5.39749C124.566 4.53204 124.012 3.80093 123.047 3.20417C122.095 2.60855 120.919 2.25127 119.521 2.13232C117.638 1.9722 116.13 2.33835 114.997 3.23077C113.879 4.11088 113.255 5.31741 113.125 6.85036C112.993 8.39676 113.417 9.69923 114.398 10.7578C115.391 11.8174 116.877 12.4313 118.854 12.5995C120.36 12.7276 121.608 12.5493 122.598 12.0645C123.588 11.5664 124.229 10.8827 124.52 10.0135Z" fill="black"/>
<path d="M78.0651 6.10972L81.8241 19.7725L84.284 19.0961L80.5249 5.43324L78.0651 6.10972Z" fill="black"/>
<path d="M61.2055 13.5743L63.4618 12.3838L70.0773 24.9158L67.821 26.1063L64.948 20.6638L55.7798 25.5015L58.6528 30.944L56.3965 32.1345L49.781 19.6026L52.0373 18.412L54.7969 23.6397L63.9651 18.8019L61.2055 13.5743Z" fill="black"/>
<path fill-rule="evenodd" clip-rule="evenodd" d="M45.7513 36.7767C44.358 35.2894 42.549 35.4116 40.3245 37.1434C41.0309 36.2786 41.4458 35.4185 41.5693 34.5633C41.6835 33.6981 41.4269 32.9307 40.7994 32.2609C40.0428 31.4532 39.0889 31.1261 37.9379 31.2794C36.7967 31.4235 35.6646 32.0214 34.5415 33.0731L27.5812 39.591L37.2702 49.9332L44.2158 43.4291C45.5458 42.1836 46.3393 40.9874 46.5965 39.8406C46.8543 38.6746 46.5726 37.6533 45.7513 36.7767ZM33.568 42.2502L30.7997 39.2953L35.8093 34.604C36.3807 34.0689 36.9732 33.7637 37.5869 33.6883C38.2012 33.5938 38.7252 33.778 39.1589 34.241C39.5926 34.7039 39.7468 35.2436 39.6216 35.8601C39.497 36.4576 39.149 37.0238 38.5776 37.5589L33.568 42.2502ZM43.6679 38.284C44.646 39.328 44.3174 40.6158 42.682 42.1472L37.7758 46.7416L34.8829 43.6537L39.9369 38.921C41.4738 37.4818 42.7174 37.2694 43.6679 38.284Z" fill="black"/>
<path fill-rule="evenodd" clip-rule="evenodd" d="M21.4539 71.7413C19.5043 72.3694 17.5849 72.1066 15.6957 70.953C13.8064 69.7993 12.6961 68.2121 12.3648 66.1912C12.0405 64.1588 12.6101 61.9448 14.0735 59.5492C15.537 57.1536 17.2435 55.6418 19.1931 55.0137C21.1497 54.3741 23.0726 54.6311 24.9619 55.7848C26.8511 56.9384 27.9579 58.5314 28.2822 60.5638C28.6135 62.5847 28.0474 64.7929 26.584 67.1885C25.1205 69.5841 23.4105 71.1017 21.4539 71.7413ZM14.6768 65.397C14.9293 66.8479 15.7122 67.9743 17.0254 68.7762C18.3387 69.5781 19.7042 69.7636 21.1221 69.3327C22.5285 68.8948 23.7558 67.8178 24.8042 66.1017C25.8525 64.3856 26.2505 62.8022 25.998 61.3513C25.734 59.8933 24.9453 58.7634 23.6321 57.9615C22.3188 57.1596 20.959 56.9776 19.5527 57.4156C18.1348 57.8465 16.9017 58.92 15.8533 60.636C14.805 62.3521 14.4128 63.9391 14.6768 65.397Z" fill="black"/>
<path d="M1.52336 94.062L3.52335 94.653L5.29664 88.6543L16.8888 92.0796L17.6119 89.6336L6.01973 86.2082L7.79301 80.2096L5.79303 79.6186L1.52336 94.062Z" fill="black"/>
<path d="M9.71641 110.199L9.94314 107.756C11.4856 108.066 12.6786 108.911 13.5221 110.29C14.366 111.657 14.7479 113.493 14.6678 115.799C14.5712 118.578 13.8287 120.706 12.4401 122.183C11.0516 123.661 9.25118 124.361 7.03877 124.285C4.82636 124.208 3.07817 123.404 1.7942 121.874C0.510693 120.331 -0.0841818 118.21 0.00957341 115.513C0.0845776 113.355 0.578145 111.589 1.49028 110.217C2.38939 108.83 3.56559 108.02 5.0189 107.787L5.0957 110.241C4.23831 110.427 3.53572 111.017 2.98793 112.011C2.44061 112.991 2.14258 114.182 2.09382 115.585C2.02819 117.473 2.46949 118.961 3.41772 120.047C4.35292 121.119 5.58947 121.682 7.12737 121.735C8.67875 121.789 9.95861 121.3 10.9669 120.269C11.9757 119.223 12.5146 117.709 12.5835 115.727C12.636 114.216 12.3954 112.979 11.8616 112.015C11.3143 111.051 10.5993 110.445 9.71641 110.199Z" fill="black"/>
<path d="M213.481 150.597L214.381 148.314C213.602 147.831 213.084 147.05 212.828 145.971C212.584 144.897 212.698 143.642 213.171 142.206C213.79 140.321 214.73 139.018 215.991 138.296C217.247 137.586 218.613 137.474 220.087 137.958C221.549 138.439 222.579 139.324 223.178 140.615C223.785 141.923 223.794 143.474 223.204 145.269C222.766 146.602 222.147 147.663 221.348 148.452C220.544 149.253 219.705 149.624 218.829 149.563L218.218 151.941C219.679 152.123 221.034 151.673 222.285 150.592C223.544 149.529 224.511 147.971 225.185 145.92C226.028 143.356 226.049 141.154 225.247 139.313C224.441 137.486 222.987 136.227 220.884 135.535C218.781 134.844 216.856 135.014 215.111 136.046C213.365 137.077 212.058 138.914 211.189 141.555C210.469 143.747 210.323 145.617 210.752 147.164C211.177 148.725 212.086 149.869 213.481 150.597Z" fill="black"/>
<path d="M217.68 166.104L215.925 164.978L212.547 170.243L202.372 163.718L200.995 165.865L211.169 172.39L207.791 177.655L209.547 178.781L217.68 166.104Z" fill="black"/>
<path fill-rule="evenodd" clip-rule="evenodd" d="M188.832 192.529C186.601 194.253 184.792 194.368 183.404 192.876C182.586 191.996 182.308 190.974 182.57 189.809C182.831 188.663 183.629 187.47 184.964 186.229L191.933 179.75L201.584 190.128L194.6 196.62C193.473 197.668 192.339 198.262 191.197 198.402C190.046 198.551 189.093 198.22 188.339 197.41C187.714 196.738 187.461 195.969 187.578 195.105C187.705 194.25 188.123 193.391 188.832 192.529ZM198.365 190.412L195.607 187.447L190.58 192.12C190.007 192.653 189.657 193.218 189.53 193.815C189.403 194.431 189.555 194.971 189.987 195.436C190.419 195.9 190.942 196.086 191.557 195.994C192.171 195.921 192.765 195.618 193.338 195.085L198.365 190.412ZM186.493 187.517C184.852 189.042 184.519 190.329 185.493 191.376C186.44 192.394 187.684 192.186 189.226 190.753L194.297 186.038L191.416 182.94L186.493 187.517Z" fill="black"/>
<path fill-rule="evenodd" clip-rule="evenodd" d="M176.67 203.395C175.644 201.434 174.134 200.221 172.139 199.757C170.132 199.298 167.885 199.72 165.397 201.021C162.909 202.322 161.287 203.924 160.531 205.827C159.763 207.736 159.892 209.672 160.918 211.633C161.944 213.594 163.46 214.804 165.467 215.262C167.462 215.727 169.703 215.309 172.191 214.008C174.679 212.706 176.307 211.101 177.075 209.192C177.831 207.289 177.696 205.356 176.67 203.395ZM174.41 204.577C175.123 205.941 175.214 207.309 174.684 208.683C174.16 210.069 173.007 211.228 171.225 212.16C169.442 213.092 167.833 213.378 166.395 213.018C164.964 212.67 163.892 211.814 163.178 210.451C162.465 209.087 162.371 207.713 162.895 206.327C163.425 204.953 164.581 203.8 166.363 202.868C168.146 201.936 169.752 201.644 171.184 201.992C172.621 202.352 173.697 203.214 174.41 204.577Z" fill="black"/>
<path fill-rule="evenodd" clip-rule="evenodd" d="M141.116 226.016C139.572 226.347 138.245 226.245 137.136 225.71C136.028 225.175 135.322 224.202 135.019 222.79C134.713 221.365 134.945 220.197 135.716 219.286C136.49 218.389 137.675 217.769 139.272 217.426L145.884 216.007L144.754 210.743L147.249 210.207L150.223 224.062L141.116 226.016ZM139.812 219.36C138.954 219.544 138.315 219.881 137.896 220.371C137.479 220.875 137.352 221.503 137.513 222.255C137.672 222.994 138.044 223.507 138.631 223.796C139.217 224.084 139.939 224.136 140.797 223.952L147.291 222.559L146.305 217.967L139.812 219.36Z" fill="black"/>
<path fill-rule="evenodd" clip-rule="evenodd" d="M99.9788 226.42C101.371 227.893 103.439 228.746 106.182 228.979C108.684 229.192 110.722 228.81 112.295 227.833C113.868 226.856 114.863 225.438 115.278 223.577L119.011 223.894L118.51 229.784L121.052 230L122.253 215.881L119.711 215.665L119.189 221.796L115.477 221.481C115.44 219.527 114.724 217.909 113.33 216.625C111.935 215.342 109.967 214.592 107.425 214.376C104.681 214.143 102.499 214.628 100.88 215.831C99.2589 217.047 98.3553 218.752 98.1688 220.943C97.9824 223.135 98.5857 224.961 99.9788 226.42ZM107.248 216.454C109.212 216.621 110.684 217.233 111.664 218.292C112.629 219.363 113.047 220.665 112.917 222.198C112.786 223.73 112.155 224.936 111.024 225.815C109.878 226.707 108.323 227.069 106.359 226.902C104.396 226.735 102.931 226.116 101.965 225.045C100.999 223.988 100.58 222.693 100.711 221.16C100.841 219.627 101.473 218.414 102.605 217.522C103.737 216.643 105.284 216.287 107.248 216.454Z" fill="black"/>
<path fill-rule="evenodd" clip-rule="evenodd" d="M68.4093 219.548C65.9063 218.4 64.249 216.898 63.4375 215.041C62.6203 213.197 62.6703 211.275 63.5874 209.275C64.5046 207.275 65.9316 205.977 67.8685 205.381C69.7998 204.796 72.0169 205.078 74.5199 206.226C76.8389 207.289 78.4375 208.66 79.3155 210.339C80.1936 212.019 80.3195 213.784 79.6933 215.635L83.0797 217.187L85.6455 211.594L87.9645 212.657L82.0564 225.537L79.7375 224.474L82.202 219.101L78.7971 217.54C77.7762 219.151 76.3603 220.149 74.5492 220.536C72.7381 220.924 70.6915 220.594 68.4093 219.548ZM77.184 211.344C76.6198 210.017 75.442 208.942 73.6506 208.121C71.8592 207.299 70.2825 207.111 68.9203 207.555C67.5525 208.012 66.5479 208.94 65.9064 210.338C65.265 211.737 65.2202 213.097 65.7721 214.419C66.3184 215.753 67.4873 216.831 69.2787 217.652C71.07 218.474 72.6558 218.659 74.0358 218.208C75.398 217.763 76.3998 216.842 77.0413 215.443C77.6827 214.045 77.7303 212.679 77.184 211.344Z" fill="black"/>
<path d="M34.1148 180.272C32.5013 181.645 32.7383 183.766 34.8258 186.633C33.699 185.518 32.6565 184.846 31.6983 184.616C30.74 184.386 29.8858 184.59 29.1356 185.229C28.2004 186.025 27.899 187.097 28.2314 188.445C28.5639 189.793 29.3952 191.247 30.7255 192.809C32.0646 194.381 33.4448 195.439 34.8661 195.984C36.2685 196.527 37.5653 196.416 38.7566 195.65L37.3023 193.724C36.8007 194.009 36.2536 194.085 35.6611 193.951C35.0583 193.826 34.4815 193.555 33.9309 193.138C33.37 192.729 32.8051 192.191 32.2362 191.523C31.3873 190.526 30.8616 189.618 30.6593 188.797C30.4482 187.967 30.5996 187.333 31.1134 186.895C31.617 186.466 32.2533 186.412 33.0224 186.732C33.7827 187.042 34.618 187.731 35.5282 188.8L37.1823 190.742L38.6313 189.508L36.9641 187.551C35.9401 186.348 35.3102 185.307 35.0744 184.427C34.8386 183.546 34.993 182.874 35.5377 182.41C36.0926 181.938 36.7948 181.898 37.6442 182.292C38.4936 182.685 39.4127 183.463 40.4017 184.624C42.5196 187.11 43.0069 189.035 41.8635 190.399L43.4873 192.18C45.5443 189.933 45.0193 186.985 41.9124 183.337C40.4246 181.591 39.0044 180.434 37.6519 179.866C36.2907 179.287 35.1116 179.423 34.1148 180.272Z" fill="black"/>
<path d="M9.77588 160.21L7.95618 156.122L20.9211 150.397L21.9174 152.635L10.1528 157.87L24.4617 158.349L25.878 161.53L16.6576 172.48L28.4223 167.245L29.4186 169.483L16.4701 175.245L14.6586 171.176L23.914 160.454L9.77588 160.21Z" fill="black"/>
<path d="M3.27437 141.257L17.2263 138.762L16.7771 136.251L2.82516 138.746L3.27437 141.257Z" fill="black"/>
<path d="M156.203 8.01455L144.093 3.57525C143.786 4.2962 143.365 5.30625 142.831 6.60541C141.533 9.75192 140.52 11.8673 139.792 12.9514C139.076 14.0403 138.199 14.3942 137.16 14.0132C136.957 13.9389 136.653 13.806 136.249 13.6147L135.538 15.5533C136.026 15.7898 136.53 16.0033 137.05 16.1938C137.658 16.4168 138.212 16.5336 138.711 16.5442C139.215 16.5421 139.694 16.3727 140.149 16.0361C140.603 15.6995 140.984 15.365 141.293 15.0326C141.615 14.7049 141.986 14.1224 142.408 13.2853C142.848 12.4402 143.193 11.7332 143.445 11.1643C143.714 10.5874 144.104 9.681 144.615 8.4452C145.009 7.52617 145.312 6.81788 145.524 6.32035L153.089 9.09405L148.928 20.4405L151.323 21.3186L156.203 8.01455Z" fill="black"/>
<path fill-rule="evenodd" clip-rule="evenodd" d="M164.931 25.0668C164.462 23.0734 164.878 21.1818 166.181 19.392C167.483 17.6022 169.155 16.6235 171.196 16.456C173.248 16.2965 175.41 17.0423 177.68 18.6936C179.951 20.3448 181.321 22.1672 181.79 24.1605C182.27 26.1619 181.859 28.0575 180.557 29.8473C179.255 31.6371 177.577 32.6118 175.525 32.7713C173.484 32.9388 171.328 32.1969 169.057 30.5457C166.787 28.8944 165.411 27.0681 164.931 25.0668ZM171.802 18.824C170.335 18.9588 169.149 19.6483 168.244 20.8924C167.338 22.1365 167.044 23.4824 167.359 24.9301C167.682 26.3669 168.657 27.6767 170.284 28.8595C171.91 30.0424 173.457 30.5664 174.924 30.4316C176.399 30.2859 177.589 29.591 178.494 28.3469C179.399 27.1027 179.69 25.7623 179.366 24.3255C179.051 22.8779 178.08 21.5626 176.454 20.3797C174.827 19.1969 173.276 18.6783 171.802 18.824Z" fill="black"/>
<path fill-rule="evenodd" clip-rule="evenodd" d="M197.885 52.0715C199.479 50.8018 199.502 48.9892 197.953 46.6339C198.759 47.407 199.583 47.8892 200.426 48.0806C201.279 48.2637 202.065 48.0693 202.783 47.4975C203.649 46.808 204.051 45.8836 203.99 44.7242C203.938 43.5755 203.432 42.3994 202.474 41.1961L196.532 33.7385L185.446 42.5675L191.375 50.0093C192.511 51.4343 193.64 52.3208 194.763 52.6688C195.904 53.019 196.945 52.8198 197.885 52.0715ZM193.402 39.4921L196.569 36.9696L200.846 42.3371C201.334 42.9494 201.591 43.5643 201.617 44.1819C201.662 44.8016 201.436 45.3091 200.94 45.7043C200.444 46.0995 199.893 46.2101 199.289 46.036C198.703 45.864 198.166 45.472 197.678 44.8597L193.402 39.4921ZM196.549 49.8746C195.43 50.7659 194.172 50.3355 192.776 48.5832L188.587 43.3265L191.897 40.6904L196.212 46.1055C197.524 47.7521 197.636 49.0085 196.549 49.8746Z" fill="black"/>
<path fill-rule="evenodd" clip-rule="evenodd" d="M207.209 75.8938L209.682 73.0044L205.925 64.3951L202.125 64.2415L201.105 61.9036L216.897 62.6577L218.443 66.2016L208.262 78.3059L207.209 75.8938ZM208.087 64.4901L211.083 71.3554L216.656 64.8389L208.087 64.4901Z" fill="black"/>
<path d="M222.054 101.3L219.306 101.47L219.476 104.218L222.224 104.048L222.054 101.3Z" fill="black"/>
</svg>
