<svg width="176" height="176" viewBox="0 0 176 176" fill="none" xmlns="http://www.w3.org/2000/svg">
<path d="M116.272 100.133C111.194 93.3283 107.854 85.3865 106.542 76.9973C105.23 68.6082 105.986 60.0255 108.745 51.9946C103.169 58.3989 96.1142 63.345 88.1931 66.4036C80.2719 69.4621 71.7241 70.5405 63.2919 69.545C59.9483 69.1859 52.2934 67.1233 52.2934 67.1233C52.2934 67.1233 57.9003 72.7332 59.8967 75.4257C64.9749 82.2304 68.3149 90.1723 69.6267 98.5614C70.9385 106.951 70.1824 115.533 67.424 123.564C72.9998 117.16 80.0546 112.214 87.9757 109.155C95.8968 106.097 104.445 105.018 112.877 106.014C116.22 106.373 123.868 108.447 123.868 108.447C123.868 108.447 118.28 102.832 116.272 100.133Z" fill="#61B7F5"/>
<path d="M126.19 21.7782C123.174 20.0365 119.173 26.966 119.173 26.966L115.165 33.9073C115.165 33.9073 111.164 40.8368 114.181 42.5785C117.198 44.3202 121.199 37.3906 121.199 37.3906L125.206 30.4494C125.206 30.4494 129.207 23.5199 126.19 21.7782Z" fill="#61B7F5"/>
<path d="M60.3342 135.844C57.3176 134.102 53.31 141.044 53.31 141.044L49.3093 147.973C49.3093 147.973 45.3017 154.914 48.3184 156.656C51.335 158.398 55.3426 151.456 55.3426 151.456L59.3434 144.527C59.3434 144.527 63.3509 137.586 60.3342 135.844Z" fill="#61B7F5"/>
<path d="M154.697 128.147C156.438 125.13 149.498 121.123 149.498 121.123L142.557 117.116C142.557 117.116 135.628 113.115 133.886 116.132C132.145 119.149 139.073 123.15 139.073 123.15L146.014 127.157C146.014 127.157 152.955 131.164 154.697 128.147Z" fill="#61B7F5"/>
<path d="M40.629 62.2901C42.3708 59.2732 35.4419 55.2728 35.4419 55.2728L28.5012 51.2656C28.5012 51.2656 21.5606 47.2584 19.8187 50.2753C18.0769 53.2923 25.0175 57.2994 25.0175 57.2994L31.9582 61.3067C31.9582 61.3067 38.8871 65.3071 40.629 62.2901Z" fill="#61B7F5"/>
<path d="M64.7469 0.351461C61.3825 1.25311 65.797 17.5822 65.797 17.5822L70.1642 33.8842C70.1642 33.8842 74.5266 50.1675 77.891 49.2658C81.2554 48.3642 76.8341 32.0469 76.8341 32.0469L72.4514 15.7989C72.4514 15.7989 68.0841 -0.503044 64.7469 0.351461Z" fill="#61B7F5"/>
<path d="M175.468 64.2763C176.369 67.6408 160.021 71.9823 160.021 71.9823L143.719 76.3511C143.719 76.3511 127.436 80.7148 126.535 77.3503C125.633 73.9858 141.975 69.6561 141.975 69.6561L158.265 65.2806C158.265 65.2806 174.539 60.9589 175.468 64.2763Z" fill="#61B7F5"/>
<path d="M111.449 175.16C114.813 174.259 110.392 157.941 110.392 157.941L106.025 141.639C106.025 141.639 101.669 125.344 98.3322 126.199C94.995 127.053 99.3823 143.429 99.3823 143.429L103.745 159.713C103.745 159.713 108.085 176.062 111.449 175.16Z" fill="#61B7F5"/>
<path d="M0.728028 111.235C-0.173328 107.871 16.1686 103.541 16.1686 103.541L32.4701 99.1724C32.4701 99.1724 48.7598 94.7968 49.6884 98.1142C50.617 101.431 34.2411 105.82 34.2411 105.82L17.9581 110.184C17.9581 110.184 1.62938 114.6 0.728028 111.235Z" fill="#61B7F5"/>
</svg>
