<svg width="268" height="272" viewBox="0 0 268 272" fill="none" xmlns="http://www.w3.org/2000/svg">
<path d="M134 0L136.362 122.607L180.515 8.20181L140.8 124.222L221.419 31.818L144.418 127.258L251.779 68L146.78 131.349L267.934 112.384L147.6 136L267.934 159.616L146.78 140.651L251.779 204L144.418 144.742L221.419 240.182L140.8 147.778L180.515 263.798L136.362 149.393L134 272L131.638 149.393L87.4853 263.798L127.2 147.778L46.5809 240.182L123.582 144.742L16.2205 204L121.22 140.651L0.0661469 159.616L120.4 136L0.0661469 112.384L121.22 131.349L16.2205 68L123.582 127.258L46.5809 31.818L127.2 124.222L87.4853 8.20181L131.638 122.607L134 0Z" fill="#FAF010"/>
</svg>
