<svg width="178" height="181" viewBox="0 0 178 181" fill="none" xmlns="http://www.w3.org/2000/svg">
<path d="M91.0618 88.8374L156.892 67.5826C158.915 68.53 161.176 68.842 163.378 68.4777C165.581 68.1135 167.622 67.09 169.235 65.5413C170.848 63.9927 171.957 61.9912 172.416 59.7992C172.876 57.6072 172.665 55.3269 171.811 53.2573C170.957 51.1877 169.5 49.4253 167.631 48.2011C165.761 46.9769 163.567 46.348 161.335 46.3969C159.104 46.4457 156.939 47.1701 155.125 48.475C153.31 49.7799 151.931 51.6044 151.168 53.7094L90.8615 88.464C90.9431 88.5799 91.0103 88.7053 91.0618 88.8374Z" fill="#FAF010"/>
<path d="M86.7113 90.2448L21.1956 111.442C19.8314 110.85 18.36 110.547 16.8736 110.552C14.8113 110.533 12.7846 111.091 11.0206 112.164C9.25663 113.236 7.82507 114.78 6.88621 116.622C5.94735 118.465 5.53831 120.534 5.70501 122.597C5.87172 124.66 6.60753 126.635 7.83 128.302C9.05247 129.969 10.7133 131.261 12.6264 132.034C14.5395 132.807 16.6294 133.03 18.6617 132.678C20.694 132.326 22.5886 131.414 24.1331 130.042C25.6777 128.671 26.8111 126.895 27.4065 124.913L86.883 90.4459C86.8206 90.3835 86.7632 90.3163 86.7113 90.2448Z" fill="#FAF010"/>
<path d="M166.71 95.5586C164.616 95.553 162.567 96.162 160.814 97.3106L91.1476 89.814V90.2448L89.0296 89.5555L89.9742 87.5449L90.3462 87.746L130.818 32.3684C132.998 31.7968 134.953 30.5732 136.424 28.8601C137.895 27.147 138.812 25.0254 139.052 22.7771C139.293 20.5288 138.847 18.2601 137.772 16.2724C136.698 14.2847 135.047 12.672 133.037 11.6485C131.028 10.6249 128.756 10.239 126.523 10.5419C124.29 10.8447 122.202 11.8221 120.535 13.3443C118.869 14.8664 117.703 16.8612 117.193 19.0638C116.683 21.2664 116.853 23.5725 117.68 25.676L89.0583 89.2683V19.041C90.6448 17.4357 91.7086 15.3852 92.1093 13.1604C92.51 10.9356 92.2287 8.64113 91.3026 6.58012C90.3765 4.51911 88.849 2.78853 86.9221 1.61701C84.9952 0.445498 82.7596 -0.111844 80.5104 0.0186244C78.2612 0.149093 76.1043 0.961234 74.3248 2.34775C72.5452 3.73426 71.2267 5.62992 70.5434 7.78429C69.86 9.93866 69.8441 12.2504 70.4976 14.4141C71.1511 16.5777 72.4433 18.4916 74.2035 19.9027L88.6862 89.3544L46.0108 30.4727C46.0108 30.4727 46.0108 30.1855 46.0108 30.0419C46.0108 27.8377 45.3595 25.683 44.1392 23.8503C42.9189 22.0176 41.1846 20.5892 39.1553 19.7457C37.1261 18.9022 34.8932 18.6815 32.7389 19.1116C30.5847 19.5416 28.6059 20.603 27.0528 22.1615C25.4997 23.7201 24.442 25.7059 24.0135 27.8677C23.585 30.0295 23.8049 32.2703 24.6454 34.3067C25.486 36.343 26.9094 38.0836 28.7356 39.3081C30.5619 40.5327 32.709 41.1863 34.9054 41.1863H35.2775L88.6862 89.4693L87.7703 91.5086L87.5413 91.3363L46.6405 147.633C44.5975 148.077 42.7216 149.093 41.2296 150.562C39.7375 152.032 38.6902 153.894 38.2086 155.936C37.7271 157.977 37.831 160.114 38.5084 162.098C39.1858 164.083 40.409 165.835 42.0366 167.151C43.6641 168.467 45.6297 169.295 47.7061 169.537C49.7825 169.78 51.8849 169.428 53.7704 168.522C55.6559 167.617 57.2475 166.194 58.3612 164.419C59.4749 162.643 60.0653 160.588 60.0642 158.49C60.0538 157.398 59.8802 156.314 59.549 155.273L88.6862 89.7565V161.937C86.8585 163.948 85.8387 166.568 85.824 169.29C85.7476 170.799 85.9778 172.308 86.5007 173.725C87.0236 175.142 87.8281 176.438 88.8655 177.533C89.9029 178.629 91.1516 179.501 92.5353 180.097C93.9191 180.693 95.4092 181 96.915 181C98.4209 181 99.9109 180.693 101.295 180.097C102.678 179.501 103.927 178.629 104.965 177.533C106.002 176.438 106.806 175.142 107.329 173.725C107.852 172.308 108.082 170.799 108.006 169.29C108.006 167.553 107.597 165.84 106.811 164.293C106.025 162.745 104.885 161.406 103.484 160.386L88.8293 90.1012V89.7853L131.047 148.064C131.047 148.351 131.047 148.61 131.047 148.897C131.047 151.101 131.698 153.256 132.918 155.088C134.139 156.921 135.873 158.349 137.902 159.193C139.932 160.036 142.164 160.257 144.319 159.827C146.473 159.397 148.452 158.336 150.005 156.777C151.558 155.219 152.616 153.233 153.044 151.071C153.473 148.909 153.253 146.668 152.412 144.632C151.572 142.596 150.148 140.855 148.322 139.631C146.496 138.406 144.348 137.752 142.152 137.752L89.2014 89.6129L157.179 111.988C158.11 113.718 159.482 115.169 161.155 116.193C162.828 117.216 164.741 117.777 166.7 117.816C168.659 117.856 170.593 117.373 172.306 116.418C174.018 115.462 175.448 114.068 176.448 112.378C177.448 110.687 177.984 108.76 178 106.794C178.016 104.828 177.512 102.892 176.539 101.186C175.567 99.4786 174.16 98.0611 172.464 97.0776C170.767 96.0941 168.841 95.5799 166.882 95.5873L166.71 95.5586ZM87.1979 87.9757C87.2886 87.8654 87.3946 87.7686 87.5127 87.6885L88.7148 89.3831L87.1979 87.9757ZM88.8007 89.0385L88.4286 87.2864H88.8007V89.0385ZM89.3159 91.9108H89.0296V90.5033L89.3159 91.9108ZM90.5753 91.1927C90.4742 91.3035 90.3587 91.4002 90.2318 91.4799L89.0296 89.814L90.5753 91.1927Z" fill="#FAF010"/>
<path d="M16.9308 81.9152L86.5967 89.2683C86.5838 89.1249 86.5838 88.9807 86.5967 88.8374L88.5431 89.4693L20.852 67.2953C19.9298 65.5586 18.5647 64.0988 16.8962 63.0649C15.2277 62.031 13.3155 61.4602 11.3552 61.4107C9.3948 61.3612 7.45649 61.8349 5.73828 62.7833C4.02008 63.7317 2.58361 65.1209 1.57557 66.8088C0.567525 68.4968 0.0240848 70.423 0.000782357 72.3908C-0.0225201 74.3585 0.475102 76.2972 1.44289 78.0088C2.41067 79.7203 3.81391 81.1433 5.50917 82.1324C7.20444 83.1215 9.13101 83.6413 11.092 83.6386C13.1611 83.6272 15.185 83.0298 16.9308 81.9152Z" fill="#FAF010"/>
</svg>
